<svg width="221" height="68" viewBox="0 0 221 68" fill="none" xmlns="http://www.w3.org/2000/svg">
<g filter="url(#filter0_f_cta_center_couple)" style="mix-blend-mode:multiply">
<path d="M103.747 48.2756C101.709 48.8258 100.177 49.3155 104.282 48.8742L121.796 45.8274C133.36 43.6507 141.898 42.2833 155.352 40.2457C154.52 40.4997 152.789 40.7778 151.439 41.0317C132.601 44.5869 111.918 48.0029 92.0649 51.4795L91.2799 51.6169C79.9999 53.5917 79.7417 53.6369 85.0532 53.5896C87.7915 53.5654 86.6548 53.9645 81.2677 54.9862C67.5134 57.5982 53.4896 60.2162 39.1545 62.8342C36.4783 63.3239 32.6217 63.9285 34.2353 63.995C35.9675 64.0615 39.0712 63.4509 42.0808 62.8825C56.559 60.1497 71.0223 57.4168 85.5598 54.6839C88.0319 54.2184 91.3209 53.5291 93.3181 53.5049C95.2116 53.4808 91.4011 54.1761 88.9438 54.6416C74.5101 57.3745 59.9727 60.1073 45.4501 62.8402C43.4653 63.2151 40.3741 63.7048 41.6315 63.7411C42.8 63.7774 43.1215 64.0071 46.9593 63.5053C48.5855 63.2937 50.6649 62.9067 50.2101 62.8342C48.7589 62.5802 54.1153 61.6552 58.1999 60.8812C70.1615 58.6139 82.3158 56.3466 94.23 54.0854C97.4699 53.4687 99.4416 53.1845 100.696 53.2268C102.752 53.2994 105.591 52.8096 109.458 51.9934C116.618 50.4819 124.037 48.9522 131.288 47.4346C140.382 45.5301 149.277 43.6376 161.292 41.3824C154.285 43.1056 148.251 44.5869 142.312 46.0561C141.138 46.3463 140.041 46.6607 141.734 46.4975C144.145 46.267 147.829 45.3493 149.265 44.9917L149.361 44.9678C157.415 42.9726 164.545 40.8322 176.211 38.4379C186.926 36.2371 195.723 34.0484 210.513 31.6602C211.556 31.4909 212.655 31.2672 213.573 31.0798C216.23 30.5356 217.85 30.1184 216.533 30.0822C215.214 30.0519 212.337 30.4328 209.178 30.9407C205.425 31.5453 201.901 32.1983 199.147 32.7908C195.221 33.6373 191.295 34.2298 187.005 34.7498C181.111 35.4632 174.951 36.3943 168.717 37.4524C153.398 40.0523 142.691 41.6451 128.195 44.3235C121.879 45.4904 117.083 46.1692 110.59 47.3361C112.904 46.6408 111.912 46.8003 116.873 45.833C124.038 44.4363 126.489 43.9345 133.994 42.5378C149.672 39.6175 157.858 37.3744 166.994 35.0345C167.905 34.7987 168.645 34.5811 168.226 34.5267C166.094 34.2727 171.084 33.4323 177.459 32.4528C179.729 32.1022 182.169 31.7031 184.199 31.3283C187.022 30.8083 189.272 30.3125 189.158 30.0827C189.032 29.8772 186.89 30.0827 184.314 30.3911C179.429 30.9776 175.767 31.6729 173.216 32.3682C169.68 33.3295 165.166 34.1034 159.406 34.7201C154.786 35.2159 149.516 35.9898 144.195 36.7758C132.886 38.4446 120.817 40.6998 109.527 42.4532C105.641 43.0578 96.4317 44.5907 91.2158 45.3185C90.3021 45.4075 88.3181 45.6391 87.6915 45.8528C86.543 46.0666 86.6909 46.12 86.9084 46.12C92.4106 45.5456 104.26 43.6019 111.031 42.5378C118.762 41.3225 129.237 39.4906 136.986 38.2995C136.314 38.499 135.578 38.6441 134.754 38.7892C119.696 41.4314 106.079 44.0977 91.1521 46.7459C87.9174 47.3203 84.1308 48.0277 86.4273 47.9975C88.8304 47.9612 86.4301 48.463 82.5962 49.1765C60.5056 53.2818 38.4447 57.3872 16.3985 61.4925C13.2795 62.0729 10.4197 62.5748 7.82625 62.732C6.28384 62.8287 4.20957 63.1733 4.02087 63.3849C3.76263 63.6812 5.94174 63.5542 8.27988 63.3728C10.2481 63.2217 12.6341 62.7501 14.681 62.3692C22.8686 60.8456 31.0265 59.3219 39.1993 57.7983C55.3322 54.7934 71.4827 51.7824 87.6629 48.7714L87.8621 48.7343C89.8898 48.3567 92.1256 47.9404 93.8287 47.8584C95.407 47.7798 93.893 48.1305 92.1391 48.4872C76.587 51.6433 63.3571 54.7148 43.0273 58.0401C36.2192 59.1526 29.6436 60.3377 22.9905 61.4985C18.7924 62.2301 16.5682 62.9557 18.4144 62.9375C19.01 62.9315 19.9682 62.8166 21.1122 62.6534C22.7173 62.4236 23.9577 62.1818 24.0797 62.0487C24.3932 61.6981 27.5961 61.16 30.8463 60.6158C69.4077 54.1404 79.6678 51.7098 93.0385 48.8742C95.5243 48.3482 98.1475 47.7194 101.278 47.5863C102.435 47.5383 104.667 47.1076 106.263 46.7995L106.29 46.7943C111.721 45.7423 117.09 44.6963 122.521 43.6443C133.203 41.5765 143.917 39.5026 155.577 37.2474C147.106 39.4966 145.108 39.9319 130.022 42.7918C116.905 45.2767 111.55 46.1534 103.747 48.2756Z" fill="#000000"/>
</g>
<g>
<path d="M43.2238 39.0054C43.2238 38.0044 43.4127 37.0601 44.5931 37.0601C45.6224 37.0601 45.4996 38.2594 45.4902 38.9676C45.4335 44.6901 45.3013 50.4031 45.2258 56.1256C45.1785 59.9312 45.1974 59.8556 48.9841 59.6573C49.3996 59.6384 50.4005 59.6101 50.4383 58.8736C50.4761 58.1748 50.0417 58.0331 49.5318 58.0237C47.5865 57.9859 47.3882 56.815 47.4354 55.2002C47.596 49.9027 47.7659 44.5957 47.6809 39.2981C47.6432 37.0318 48.3608 35.8892 50.6083 35.7098C52.3836 35.5681 52.4874 34.8977 51.2598 33.7078C50.0134 32.5086 48.5686 31.3754 48.3608 29.4868C48.1437 27.4754 48.1059 25.4452 47.8792 23.4433C47.6809 21.753 48.4647 20.8936 49.9378 20.2893C51.5526 19.6377 53.0729 18.7595 54.6782 18.0702C56.1419 17.4375 56.0191 16.7387 54.9804 15.8133C52.9974 14.0474 51.0615 12.2344 49.0691 10.478C46.765 8.44772 44.3665 7.88114 44.6403 5.55815C44.8008 4.21724 44.7064 2.76301 44.3853 2.1681C43.8093 1.10104 42.2134 0.553338 40.9481 1.73372C39.5694 3.01797 39.305 4.80271 40.5231 6.66299C41.3636 7.9378 41.1936 8.7499 40.0982 9.68476C38.5496 11.0162 37.4353 12.7349 36.2077 14.3402C32.846 18.7312 32.8554 18.7312 37.9452 20.7237C38.7762 21.0542 40.0982 21.498 40.0888 22.5651C40.0604 26.1345 40.4948 29.6662 37.8885 32.7447C35.4806 35.587 35.4522 35.672 39.0311 36.503C40.7781 36.909 41.4013 37.6928 41.3541 39.5059C41.2314 44.1141 41.2597 48.7223 41.3352 53.3305C41.3636 55.4835 41.9585 57.967 38.9462 57.8726C38.1341 57.8443 37.4731 58.7508 38.1152 59.4212C38.7479 60.0917 40.9859 59.7801 42.3362 59.544C43.3466 59.3646 43.2616 58.2692 43.2616 57.4571C43.2711 52.83 43.2427 43.6136 43.2238 39.0054ZM36.1699 17.7397C35.9999 17.022 40.1832 12.3005 40.8159 12.291C41.1086 12.291 41.0425 19.4961 40.2399 19.4961C39.3333 19.4961 36.321 18.3912 36.1699 17.7397ZM52.6008 16.9559C51.2882 17.7208 49.9189 18.3912 48.5119 18.9767C47.9642 19.2033 47.8981 18.5707 47.8792 18.1646C47.7848 16.3043 47.7093 14.4535 47.6054 12.1116C49.4373 13.6131 50.8821 14.784 52.3175 15.9738C52.6385 16.2193 53.0918 16.6632 52.6008 16.9559Z" fill="#F1ECDF"/>
<path d="M21.0262 57.3686C21.1895 52.2148 21.0646 47.0514 21.055 41.8879C21.055 40.936 21.2952 39.811 19.7196 39.7822C18.3266 39.763 18.4034 40.7245 18.2881 41.6476C17.6349 46.8302 16.9912 52.0129 16.3091 57.1955C16.0881 58.907 14.8968 60.3109 10.9964 59.6666C10.6025 59.5993 10.5448 59.1474 10.5833 58.7724C10.6313 58.282 10.9675 57.9166 11.3806 57.907C14.5414 57.8301 14.6951 55.609 14.9449 53.2436C15.3676 49.2436 15.9056 45.2533 16.5301 41.2726C16.7702 39.7341 16.3667 39.2918 14.8392 39.311C11.7169 39.3399 11.6785 39.2533 12.2645 36.1284C13.4077 30.0227 14.6182 23.9265 15.358 17.7439C15.5501 16.1382 16.2226 14.0709 15.1466 13.0901C14.1763 12.2151 12.6872 13.0324 11.371 13.6189C9.45922 14.4843 7.85484 16.0708 6.47141 17.3689C4.86703 18.8593 3.26264 20.3497 1.64865 21.8304C1.22594 22.2054 0.78401 22.8112 0.217191 22.1958C-0.330414 21.5996 0.284441 21.1381 0.668725 20.7823C4.43471 17.3112 8.09501 12.2247 13.2444 10.6959C15.4252 10.0517 19.4602 9.49398 18.0672 4.75363C17.6829 3.45557 18.1248 2.11904 18.9414 0.955588C20.296 -0.977088 23.0245 0.388285 23.2646 1.83058C23.4952 3.19595 23.0629 4.74402 22.1406 5.85939C21.3048 6.869 21.5738 7.59976 22.5249 8.33053C24.2542 9.67667 25.9738 11.0324 27.6166 12.4747C28.6254 13.3593 29.1922 13.0324 29.7494 12.0324C31.1328 9.56129 32.5163 7.09977 33.9381 4.65748C34.2936 4.05172 34.8796 3.10942 35.5713 3.5421C36.1574 3.93633 35.5905 4.82094 35.2831 5.37863C33.6499 8.34976 31.9398 11.2824 30.3258 14.2632C29.663 15.4939 28.952 15.7247 27.8376 14.8305C26.6367 13.8689 25.4743 13.2151 24.1293 12.2343C23.7354 11.9459 23.524 12.1093 23.6105 12.4843C24.5904 16.6574 24.6961 20.7054 25.3398 24.9362C25.9642 29.0515 26.5599 33.1765 27.242 37.2918C27.5398 39.0707 27.1555 40.0514 25.1284 39.763C23.6489 39.5514 22.9476 40.0995 22.9668 41.7341C23.0148 46.3302 22.9476 50.9263 22.8707 55.5128C22.8515 56.9167 23.1686 57.859 24.8018 57.8686C25.4262 57.8686 26.1948 58.0128 26.1179 58.8878C26.0315 59.7628 25.2341 59.6666 24.6192 59.6666C23.524 59.7051 20.9493 59.6763 21.0262 57.3686Z" fill="#F1ECDF"/>
</g>
<defs>
<filter id="filter0_f_cta_center_couple" x="0" y="26" width="221" height="42" filterUnits="userSpaceOnUse" color-interpolation-filters="sRGB">
<feFlood flood-opacity="0" result="BackgroundImageFix"/>
<feBlend mode="normal" in="SourceGraphic" in2="BackgroundImageFix" result="shape"/>
<feGaussianBlur stdDeviation="2" result="effect1_foregroundBlur_cta_center_couple"/>
</filter>
</defs>
</svg>
