<svg preserveAspectRatio="none" overflow="visible" style="display: block;" width="113" height="92" viewBox="0 0 113 92" fill="none" xmlns="http://www.w3.org/2000/svg">
<g id="map">
<g id="Vector">
<mask id="path-1-inside-1_0_11" fill="white">
<path d="M25.407 6.27337C25.3325 5.9493 24.8263 5.81728 24.5284 6.04532C24.4061 6.13686 24.2884 6.22426 24.1748 6.30861L24.1734 6.3096C23.7065 6.65617 23.309 6.95124 22.95 7.26957C16.9788 12.5866 10.8438 17.7477 3.14533 21.5284C2.62415 21.7805 2.2221 22.6686 2.32633 23.1967C5.00667 37.9477 7.71678 52.6866 10.5311 67.4135C11.2005 70.9354 11.9859 74.4432 12.7715 77.9516C13.2442 80.0627 13.7169 82.1741 14.1645 84.2889C14.4546 85.6266 14.6905 86.9716 14.9426 88.4091C15.0139 88.816 15.0866 89.2303 15.1622 89.654C15.2217 89.978 15.6833 90.1461 16.0109 89.966C16.7108 89.606 17.2469 89.3299 17.7234 89.0058C18.9569 88.1711 20.1926 87.3381 21.4285 86.505C25.7721 83.577 30.1168 80.6483 34.3712 77.6396C39.3302 74.1556 39.3153 74.0638 38.4665 68.8277L38.4513 68.7338C38.0194 66.1053 37.6323 63.9929 37.0218 62.0485L32.9864 38.3798C31.2612 30.955 29.4993 23.5303 27.7058 15.9725C26.9451 12.7668 26.1787 9.53711 25.407 6.27337Z"/>
<path d="M56.4095 40.4442C54.6673 32.8227 52.8357 25.2131 50.9297 17.6156C50.7134 16.7222 49.6013 16.2145 48.6851 15.7962C48.5921 15.7537 48.501 15.7122 48.4132 15.6712C44.3184 13.737 41.4441 12.3275 39.1949 11.2246L39.1927 11.2235C39.0941 11.1751 38.9967 11.1274 38.9005 11.0802C38.223 10.748 37.6026 10.4442 37.0218 10.1621C35.6141 9.47604 34.4764 8.91268 33.5366 8.44734C30.6787 7.0322 29.6512 6.52342 28.4298 6.22536C27.9533 6.10533 27.5066 6.4414 27.5959 6.82548C29.1162 13.2134 30.6038 19.4874 32.072 25.6793C33.0342 29.737 33.9879 33.7595 34.9371 37.7556L39.4043 61.6524C39.6489 63.7294 39.9695 65.7992 40.2901 67.8697C40.555 69.58 40.82 71.2909 41.0423 73.0067C41.1763 74.0629 41.5188 74.711 42.7994 75.0711C43.242 75.193 43.6856 75.3111 44.1286 75.4291C45.4296 75.7755 46.7262 76.1207 47.9814 76.5594C52.3634 78.0902 56.7102 79.6565 61.1705 81.2637C62.5153 81.7482 63.8703 82.2365 65.2397 82.7286C65.88 82.9566 66.565 82.4885 66.3863 81.9484C66.1219 81.1335 65.8568 80.3248 65.5932 79.5207C64.5953 76.4763 63.6191 73.4985 62.7828 70.4982L56.4095 40.4442Z"/>
<path d="M65.2695 4.23296C65.1206 3.57283 64.0336 3.39279 63.5869 3.95691C63.1242 4.53162 62.7078 5.13124 62.0682 6.05245C61.4522 6.93968 60.629 8.12521 59.3579 9.87408C58.2148 11.4471 57.3907 12.4451 56.4151 13.6267C55.8275 14.3384 55.1848 15.1167 54.3844 16.1273C53.893 16.7515 53.1187 18.1677 53.2527 18.9599C53.3471 19.5688 53.44 20.1782 53.533 20.788L53.5335 20.7912C54.0268 24.0269 54.5215 27.2715 55.248 30.4822C55.831 33.0754 56.5911 35.6415 57.3887 38.334L57.3902 38.3389C57.6516 39.2213 57.917 40.1173 58.1815 41.0323L64.8228 70.3421C65.6673 72.9833 66.6225 75.9196 67.6434 79.0576L67.6444 79.0608L68.6497 82.1525C68.7986 82.5846 69.4985 82.7286 69.8708 82.3805C70.7296 81.5971 71.5777 80.8243 72.4167 80.0599L72.4199 80.057C76.2197 76.5946 79.8306 73.3045 83.3915 69.9821C83.8085 69.586 83.8829 68.7218 83.6894 68.1697C83.2338 66.9188 82.7161 65.6785 82.1986 64.4385C81.2612 62.1927 80.3242 59.948 79.7582 57.6436L70.6004 27.4096L70.2321 25.8106L70.2286 25.7954C68.5841 18.6555 66.959 11.5999 65.2695 4.23296Z"/>
<path d="M102.094 49.1099C100.248 42.3286 98.7439 35.4872 97.508 28.6218C96.9615 25.6037 96.7795 22.5468 96.5975 19.4888C96.5117 18.0472 96.4259 16.6053 96.3018 15.1671C96.138 13.2588 94.8872 12.2866 92.7429 11.6024C90.0878 10.7464 87.5676 9.84145 85.3999 9.0631C84.3459 8.68466 83.3753 8.33614 82.513 8.03772C79.2083 6.90041 76.5691 5.90303 73.7692 4.84495C72.0778 4.20576 70.3278 3.54441 68.337 2.81668C67.8158 2.62464 67.2351 2.98471 67.3393 3.4288C68.1875 7.26891 69.0779 11.2281 69.9589 15.1451C70.7327 18.5861 71.4993 21.9945 72.2235 25.2612L82.4715 59.1903C83.5741 61.9807 84.6225 64.634 85.5209 67.3175C86.1169 69.0912 87.4891 69.514 89.6987 70.1947C90.36 70.3984 91.0962 70.6252 91.9091 70.9182C94.9131 71.9976 97.5889 72.8458 100.343 73.7191C102.245 74.3218 104.183 74.9365 106.294 75.6472C106.494 75.7137 106.715 75.7904 106.949 75.8712C108.191 76.3012 109.77 76.8479 110.284 76.5954C110.675 76.3996 110.182 75.1472 109.596 73.6604C109.356 73.0509 109.101 72.402 108.885 71.7704C105.995 63.4184 104.507 57.9602 102.234 49.6218L102.094 49.1099Z"/>
<path fill-rule="evenodd" clip-rule="evenodd" d="M61.5617 2.84068L61.7749 2.5543C61.7039 2.65001 61.6329 2.74557 61.5617 2.84068ZM24.5284 6.04532C24.4061 6.13686 24.2884 6.22426 24.1748 6.30861L24.1734 6.3096C24.2875 6.22495 24.4057 6.1372 24.5284 6.04532Z"/>
</mask>
<path d="M25.407 6.27337C25.3325 5.9493 24.8263 5.81728 24.5284 6.04532C24.4061 6.13686 24.2884 6.22426 24.1748 6.30861L24.1734 6.3096C23.7065 6.65617 23.309 6.95124 22.95 7.26957C16.9788 12.5866 10.8438 17.7477 3.14533 21.5284C2.62415 21.7805 2.2221 22.6686 2.32633 23.1967C5.00667 37.9477 7.71678 52.6866 10.5311 67.4135C11.2005 70.9354 11.9859 74.4432 12.7715 77.9516C13.2442 80.0627 13.7169 82.1741 14.1645 84.2889C14.4546 85.6266 14.6905 86.9716 14.9426 88.4091C15.0139 88.816 15.0866 89.2303 15.1622 89.654C15.2217 89.978 15.6833 90.1461 16.0109 89.966C16.7108 89.606 17.2469 89.3299 17.7234 89.0058C18.9569 88.1711 20.1926 87.3381 21.4285 86.505C25.7721 83.577 30.1168 80.6483 34.3712 77.6396C39.3302 74.1556 39.3153 74.0638 38.4665 68.8277L38.4513 68.7338C38.0194 66.1053 37.6323 63.9929 37.0218 62.0485L32.9864 38.3798C31.2612 30.955 29.4993 23.5303 27.7058 15.9725C26.9451 12.7668 26.1787 9.53711 25.407 6.27337Z" fill="#FAF7F1"/>
<path d="M56.4095 40.4442C54.6673 32.8227 52.8357 25.2131 50.9297 17.6156C50.7134 16.7222 49.6013 16.2145 48.6851 15.7962C48.5921 15.7537 48.501 15.7122 48.4132 15.6712C44.3184 13.737 41.4441 12.3275 39.1949 11.2246L39.1927 11.2235C39.0941 11.1751 38.9967 11.1274 38.9005 11.0802C38.223 10.748 37.6026 10.4442 37.0218 10.1621C35.6141 9.47604 34.4764 8.91268 33.5366 8.44734C30.6787 7.0322 29.6512 6.52342 28.4298 6.22536C27.9533 6.10533 27.5066 6.4414 27.5959 6.82548C29.1162 13.2134 30.6038 19.4874 32.072 25.6793C33.0342 29.737 33.9879 33.7595 34.9371 37.7556L39.4043 61.6524C39.6489 63.7294 39.9695 65.7992 40.2901 67.8697C40.555 69.58 40.82 71.2909 41.0423 73.0067C41.1763 74.0629 41.5188 74.711 42.7994 75.0711C43.242 75.193 43.6856 75.3111 44.1286 75.4291C45.4296 75.7755 46.7262 76.1207 47.9814 76.5594C52.3634 78.0902 56.7102 79.6565 61.1705 81.2637C62.5153 81.7482 63.8703 82.2365 65.2397 82.7286C65.88 82.9566 66.565 82.4885 66.3863 81.9484C66.1219 81.1335 65.8568 80.3248 65.5932 79.5207C64.5953 76.4763 63.6191 73.4985 62.7828 70.4982L56.4095 40.4442Z" fill="#FAF7F1"/>
<path d="M65.2695 4.23296C65.1206 3.57283 64.0336 3.39279 63.5869 3.95691C63.1242 4.53162 62.7078 5.13124 62.0682 6.05245C61.4522 6.93968 60.629 8.12521 59.3579 9.87408C58.2148 11.4471 57.3907 12.4451 56.4151 13.6267C55.8275 14.3384 55.1848 15.1167 54.3844 16.1273C53.893 16.7515 53.1187 18.1677 53.2527 18.9599C53.3471 19.5688 53.44 20.1782 53.533 20.788L53.5335 20.7912C54.0268 24.0269 54.5215 27.2715 55.248 30.4822C55.831 33.0754 56.5911 35.6415 57.3887 38.334L57.3902 38.3389C57.6516 39.2213 57.917 40.1173 58.1815 41.0323L64.8228 70.3421C65.6673 72.9833 66.6225 75.9196 67.6434 79.0576L67.6444 79.0608L68.6497 82.1525C68.7986 82.5846 69.4985 82.7286 69.8708 82.3805C70.7296 81.5971 71.5777 80.8243 72.4167 80.0599L72.4199 80.057C76.2197 76.5946 79.8306 73.3045 83.3915 69.9821C83.8085 69.586 83.8829 68.7218 83.6894 68.1697C83.2338 66.9188 82.7161 65.6785 82.1986 64.4385C81.2612 62.1927 80.3242 59.948 79.7582 57.6436L70.6004 27.4096L70.2321 25.8106L70.2286 25.7954C68.5841 18.6555 66.959 11.5999 65.2695 4.23296Z" fill="#FAF7F1"/>
<path d="M102.094 49.1099C100.248 42.3286 98.7439 35.4872 97.508 28.6218C96.9615 25.6037 96.7795 22.5468 96.5975 19.4888C96.5117 18.0472 96.4259 16.6053 96.3018 15.1671C96.138 13.2588 94.8872 12.2866 92.7429 11.6024C90.0878 10.7464 87.5676 9.84145 85.3999 9.0631C84.3459 8.68466 83.3753 8.33614 82.513 8.03772C79.2083 6.90041 76.5691 5.90303 73.7692 4.84495C72.0778 4.20576 70.3278 3.54441 68.337 2.81668C67.8158 2.62464 67.2351 2.98471 67.3393 3.4288C68.1875 7.26891 69.0779 11.2281 69.9589 15.1451C70.7327 18.5861 71.4993 21.9945 72.2235 25.2612L82.4715 59.1903C83.5741 61.9807 84.6225 64.634 85.5209 67.3175C86.1169 69.0912 87.4891 69.514 89.6987 70.1947C90.36 70.3984 91.0962 70.6252 91.9091 70.9182C94.9131 71.9976 97.5889 72.8458 100.343 73.7191C102.245 74.3218 104.183 74.9365 106.294 75.6472C106.494 75.7137 106.715 75.7904 106.949 75.8712C108.191 76.3012 109.77 76.8479 110.284 76.5954C110.675 76.3996 110.182 75.1472 109.596 73.6604C109.356 73.0509 109.101 72.402 108.885 71.7704C105.995 63.4184 104.507 57.9602 102.234 49.6218L102.094 49.1099Z" fill="#FAF7F1"/>
<path fill-rule="evenodd" clip-rule="evenodd" d="M61.5617 2.84068L61.7749 2.5543C61.7039 2.65001 61.6329 2.74557 61.5617 2.84068ZM24.5284 6.04532C24.4061 6.13686 24.2884 6.22426 24.1748 6.30861L24.1734 6.3096C24.2875 6.22495 24.4057 6.1372 24.5284 6.04532Z" fill="#FAF7F1"/>
<path d="M50.9744 14.327L50.7243 14.8724L50.7262 14.8732L50.9744 14.327ZM53.3271 13.8349L53.8053 14.1974L53.8075 14.1944L53.3271 13.8349ZM63.2295 0.800278L62.814 0.367431L62.8107 0.37062L63.2295 0.800278ZM68.0243 0.800278L68.2361 0.238904L68.2355 0.238692L68.0243 0.800278ZM94.2618 10.3182L94.0435 10.877L94.0438 10.8772L94.2618 10.3182ZM98.2674 13.9429L98.8646 13.8854L98.8645 13.8844L98.2674 13.9429ZM99.5331 27.4096L98.9371 27.479L98.9373 27.4801L99.5331 27.4096ZM108.602 64.0409L108.031 64.2255L108.031 64.2259L108.602 64.0409ZM112.875 76.8114L113.444 76.6215L113.444 76.6201L112.875 76.8114ZM110.493 78.6358L110.36 79.221L110.363 79.2216L110.493 78.6358ZM94.3958 73.9428L94.2366 74.5213L94.2377 74.5216L94.3958 73.9428ZM87.3078 71.4944L87.5121 70.9302L87.5118 70.9301L87.3078 71.4944ZM82.7215 72.7306L83.1356 73.1647L83.1372 73.1632L82.7215 72.7306ZM70.8833 84.1809L71.303 84.6097L71.3034 84.6093L70.8833 84.1809ZM65.3886 85.0451L65.6028 84.4846L65.6012 84.484L65.3886 85.0451ZM41.3252 76.4153L41.1271 76.9817L41.1313 76.9832L41.3252 76.4153ZM38.1088 77.2915L38.443 77.7898L38.445 77.7885L38.1088 77.2915ZM18.5572 90.6622L18.8918 91.1603L18.8962 91.1573L18.5572 90.6622ZM16.5172 91.7424L16.285 91.1891L16.2798 91.1914L16.5172 91.7424ZM13.1966 90.4221L12.613 90.5617L12.6136 90.5642L13.1966 90.4221ZM11.4544 81.3843L12.0435 81.2708L12.0434 81.2701L11.4544 81.3843ZM6.03413 53.5268L6.62315 53.4125L6.62306 53.4121L6.03413 53.5268ZM0.0927221 23.0407L0.681473 22.925L0.680752 22.9215L0.0927221 23.0407ZM1.5818 20.1481L1.83824 20.6906L1.8383 20.6905L1.5818 20.1481ZM17.9318 8.90189L17.5293 8.45693L17.5284 8.45776L17.9318 8.90189ZM24.7071 3.68085L24.3713 3.18361L24.368 3.18588L24.7071 3.68085ZM27.313 3.52482L27.5591 2.97758L27.5545 2.97556L27.313 3.52482ZM46.0993 12.09L45.849 12.6353L45.849 12.6354L46.0993 12.09ZM4.15501 43.8656L3.56603 43.9801V43.9801L4.15501 43.8656ZM12.0053 84.4023L12.5961 84.2974V84.2974L12.0053 84.4023ZM24.7002 86.4417L25.0403 86.9359V86.9359L24.7002 86.4417ZM88.9556 72.1015L89.1646 71.539V71.539L88.9556 72.1015ZM100.828 75.8803L100.647 76.4525V76.4525L100.828 75.8803ZM111.734 73.4323L111.166 73.6246L111.166 73.6254L111.734 73.4323ZM98.7066 18.8388L98.1089 18.8905V18.8905L98.7066 18.8388ZM80.7742 5.39641L80.9724 4.8301V4.8301L80.7742 5.39641ZM61.7761 2.55261L61.2943 2.19501L61.293 2.19686L61.7761 2.55261ZM55.6604 10.7148L56.1409 11.074V11.074L55.6604 10.7148ZM111.736 73.4363L112.304 73.244L112.304 73.2433L111.736 73.4363ZM46.1034 12.0919L46.3537 11.5466L46.3536 11.5466L46.1034 12.0919ZM46.1083 12.0942L45.858 12.6395L45.858 12.6395L46.1083 12.0942ZM24.1748 6.30861L23.8171 5.82684L23.8171 5.82688L24.1748 6.30861ZM50.9744 14.327L50.7262 14.8732C51.7601 15.343 53.119 15.1025 53.8053 14.1974L53.3271 13.8349L52.849 13.4724C52.5524 13.8635 51.8266 14.0551 51.2226 13.7807L50.9744 14.327ZM63.2295 0.800278L63.645 1.23311C64.1909 0.709028 64.6667 0.565269 65.2434 0.606586C65.8919 0.653049 66.6696 0.931736 67.8131 1.36186L68.0243 0.800278L68.2355 0.238692C67.1454 -0.171348 66.1883 -0.528787 65.3291 -0.590346C64.3981 -0.65705 63.5933 -0.380726 62.814 0.367443L63.2295 0.800278ZM94.2618 10.3182L94.0438 10.8772C95.4329 11.4189 96.2993 11.8381 96.8455 12.3068C97.3464 12.7367 97.594 13.2229 97.6703 14.0014L98.2674 13.9429L98.8645 13.8844C98.7621 12.8385 98.3918 12.0525 97.627 11.3962C96.9074 10.7786 95.8604 10.2976 94.4798 9.75918L94.2618 10.3182ZM99.5331 27.4096L98.9373 27.4801C100.419 40.0031 104.129 52.1636 108.031 64.2255L108.602 64.0409L109.172 63.8562C105.271 51.7933 101.596 39.733 100.129 27.3391L99.5331 27.4096ZM112.875 76.8114L112.306 77.0013C112.501 77.5852 112.358 77.8406 112.218 77.9541C112.02 78.1132 111.536 78.2523 110.622 78.05L110.493 78.6358L110.363 79.2216C111.4 79.4514 112.345 79.3925 112.971 78.8884C113.653 78.3387 113.726 77.4659 113.444 76.6215L112.875 76.8114ZM87.3078 71.4944L87.5118 70.9301C86.3755 70.5193 85.3774 70.5443 84.4931 70.8528C83.6268 71.1551 82.9128 71.7146 82.3057 72.298L82.7215 72.7306L83.1372 73.1632C83.6916 72.6304 84.2583 72.2057 84.8884 71.9859C85.5007 71.7722 86.215 71.7373 87.1038 72.0586L87.3078 71.4944ZM82.7215 72.7306L82.3073 72.2965C78.3295 76.0911 74.3814 79.9098 70.4632 83.7525L70.8833 84.1809L71.3034 84.6093C75.2177 80.7704 79.1618 76.9556 83.1356 73.1647L82.7215 72.7306ZM70.8833 84.1809L70.4636 83.7521C69.4122 84.7812 68.8833 85.1238 68.3496 85.1926C68.0787 85.2276 67.7611 85.197 67.3147 85.078C66.8634 84.9577 66.3213 84.7591 65.6028 84.4846L65.3886 85.0451L65.1745 85.6055C65.8855 85.8771 66.4844 86.0986 67.0057 86.2375C67.5318 86.3777 68.0183 86.4453 68.5031 86.3828C69.4808 86.2566 70.2698 85.621 71.303 84.6097L70.8833 84.1809ZM65.3886 85.0451L65.6012 84.484C57.642 81.4685 49.6095 78.6097 41.5191 75.8475L41.3252 76.4153L41.1313 76.9832C49.2122 79.7421 57.2319 82.5964 65.1761 85.6061L65.3886 85.0451ZM41.3252 76.4153L41.5233 75.849C41.2131 75.7405 40.8695 75.7298 40.552 75.759C40.2274 75.7888 39.887 75.8645 39.559 75.9644C38.9073 76.1628 38.2448 76.4751 37.7726 76.7945L38.1088 77.2915L38.445 77.7885C38.8067 77.5438 39.3578 77.28 39.9085 77.1124C40.1817 77.0292 40.4397 76.9743 40.6619 76.9539C40.8912 76.9329 41.0427 76.9522 41.1271 76.9817L41.3252 76.4153ZM18.5572 90.6622L18.2227 90.1641C17.6361 90.5581 16.9721 90.9007 16.285 91.1892L16.5172 91.7424L16.7495 92.2956C17.4918 91.984 18.2275 91.6064 18.8918 91.1602L18.5572 90.6622ZM16.5172 91.7424L16.2798 91.1914C15.0249 91.7321 13.997 91.1724 13.7795 90.2801L13.1966 90.4221L12.6136 90.5642C13.0514 92.3604 15.0015 93.0489 16.7547 92.2934L16.5172 91.7424ZM0.0927221 23.0407L0.680752 22.9215C0.56316 22.3416 0.574839 21.9499 0.710325 21.6436C0.841319 21.3474 1.13778 21.0217 1.83824 20.6906L1.5818 20.1481L1.32535 19.6057C0.477176 20.0067 -0.0974714 20.5032 -0.387141 21.1582C-0.672319 21.803 -0.630859 22.4916 -0.495308 23.16L0.0927221 23.0407ZM1.5818 20.1481L1.8383 20.6905C8.1757 17.6936 13.4958 13.7419 18.3353 9.34602L17.9318 8.90189L17.5284 8.45776C12.7485 12.7996 7.5259 16.6735 1.32529 19.6057L1.5818 20.1481ZM17.9318 8.90189L18.3343 9.34685C20.3755 7.50037 22.6737 5.80135 25.0462 4.17582L24.7071 3.68085L24.368 3.18588C21.9756 4.82501 19.6278 6.55867 17.5293 8.45694L17.9318 8.90189ZM24.7071 3.68085L25.0429 4.17809C25.1813 4.08462 25.5352 3.98107 26.0051 3.95432C26.4655 3.92811 26.8694 3.98522 27.0715 4.07408L27.313 3.52482L27.5545 2.97556C27.1014 2.77636 26.4779 2.72545 25.9369 2.75626C25.4053 2.78652 24.7839 2.90501 24.3713 3.18362L24.7071 3.68085ZM46.0993 12.09L46.3496 11.5448C40.031 8.6442 33.8094 5.78814 27.5591 2.9776L27.313 3.52482L27.0669 4.07204C33.3123 6.88035 39.5297 9.73445 45.849 12.6353L46.0993 12.09ZM0.0927221 23.0407L-0.496018 23.1564C0.867089 30.093 2.21632 37.0353 3.56603 43.9801L4.15501 43.8656L4.74399 43.7512C3.39432 36.8066 2.04485 29.863 0.681462 22.925L0.0927221 23.0407ZM4.15501 43.8656L3.56603 43.9801C4.19185 47.2002 4.81778 50.4209 5.4452 53.6415L6.03413 53.5268L6.62306 53.4121C5.99569 50.1917 5.36982 46.9713 4.74399 43.7512L4.15501 43.8656ZM6.03413 53.5268L5.44511 53.641C6.34606 58.2863 7.25072 62.9284 8.15532 67.5703L8.74425 67.4556L9.33317 67.3408C8.42855 62.6988 7.52399 58.0572 6.62315 53.4125L6.03413 53.5268ZM8.74425 67.4556L8.15532 67.5703C9.05995 72.2123 9.96451 76.854 10.8653 81.4986L11.4544 81.3843L12.0434 81.2701C11.1424 76.6249 10.2378 71.9827 9.33317 67.3408L8.74425 67.4556ZM11.4544 81.3843L10.8652 81.4979C11.0578 82.497 11.2357 83.4995 11.4145 84.5071L12.0053 84.4023L12.5961 84.2974C12.4175 83.2913 12.2381 82.28 12.0435 81.2708L11.4544 81.3843ZM12.0053 84.4023L11.4145 84.5071C11.7714 86.518 12.1317 88.5492 12.613 90.5617L13.1966 90.4221L13.7801 90.2826C13.3084 88.3103 12.954 86.314 12.5961 84.2974L12.0053 84.4023ZM18.5572 90.6622L18.8962 91.1573C20.9487 89.7521 22.9953 88.3435 25.0403 86.9359L24.7002 86.4417L24.36 85.9475C22.3147 87.3552 20.2694 88.7629 18.2183 90.1671L18.5572 90.6622ZM24.7002 86.4417L25.0403 86.9359C29.4966 83.8688 33.9456 80.8066 38.443 77.7898L38.1088 77.2915L37.7746 76.7932C33.2701 79.8147 28.8152 82.881 24.36 85.9475L24.7002 86.4417ZM87.3078 71.4944L87.1035 72.0585C87.6524 72.2573 88.1984 72.4602 88.7466 72.6639L88.9556 72.1015L89.1646 71.539C88.6172 71.3356 88.0665 71.131 87.5121 70.9302L87.3078 71.4944ZM88.9556 72.1015L88.7466 72.6639C90.5313 73.3271 92.3378 73.9987 94.2366 74.5213L94.3958 73.9428L94.555 73.3644C92.7149 72.8579 90.9568 72.205 89.1646 71.539L88.9556 72.1015ZM94.3958 73.9428L94.2377 74.5216C96.3696 75.1041 98.4963 75.7744 100.647 76.4525L100.828 75.8803L101.008 75.3081C98.8609 74.6312 96.7121 73.9536 94.5539 73.3641L94.3958 73.9428ZM100.828 75.8803L100.647 76.4525C103.82 77.4529 107.046 78.47 110.36 79.221L110.493 78.6358L110.625 78.0506C107.367 77.3124 104.189 76.3108 101.008 75.3081L100.828 75.8803ZM111.734 73.4323L112.303 73.2401C111.245 70.1156 110.189 66.9919 109.172 63.8559L108.602 64.0409L108.031 64.2259C109.05 67.3704 110.109 70.5013 111.166 73.6246L111.734 73.4323ZM99.5331 27.4096L100.129 27.3402C99.7985 24.5002 99.5519 21.6491 99.3044 18.7872L98.7066 18.8388L98.1089 18.8905C98.3561 21.7495 98.6041 24.6184 98.9371 27.479L99.5331 27.4096ZM98.7066 18.8388L99.3044 18.7872C99.1633 17.1552 99.0219 15.5198 98.8646 13.8854L98.2674 13.9429L97.6702 14.0003C97.8267 15.628 97.9677 17.2576 98.1089 18.8905L98.7066 18.8388ZM94.2618 10.3182L94.4801 9.75931C89.5306 7.82562 85.3687 6.36888 80.9724 4.8301L80.7742 5.39641L80.576 5.96272C84.973 7.50178 89.1164 8.95209 94.0435 10.877L94.2618 10.3182ZM80.7742 5.39641L80.9724 4.8301C77.1362 3.48734 73.1203 2.08168 68.2361 0.238904L68.0243 0.800278L67.8125 1.36165C72.7116 3.21005 76.7397 4.61995 80.576 5.96272L80.7742 5.39641ZM63.2295 0.800278L62.8107 0.37062C62.2184 0.947914 61.7383 1.59682 61.2944 2.19502L61.7761 2.55261L62.2579 2.9102C62.7108 2.3 63.1359 1.72934 63.6483 1.22994L63.2295 0.800278ZM61.5617 2.84068L61.0825 2.47964C59.1121 5.095 57.1572 7.7102 55.1798 10.3556L55.6604 10.7148L56.1409 11.074C58.1186 8.42837 60.0721 5.81497 62.0409 3.20172L61.5617 2.84068ZM55.6604 10.7148L55.1798 10.3556C54.4064 11.3902 53.6295 12.4295 52.8468 13.4754L53.3271 13.8349L53.8075 14.1944C54.5905 13.1482 55.3675 12.1086 56.1409 11.074L55.6604 10.7148ZM68.6497 82.1525L69.2204 81.9671C68.8794 80.9176 68.5438 79.8858 68.215 78.8751L67.6444 79.0608L67.0738 79.2464C67.4026 80.2571 67.7382 81.2886 68.0791 82.3379L68.6497 82.1525ZM70.6004 27.4096L71.1851 27.2749C71.0622 26.7413 70.9394 26.2084 70.8168 25.676L70.2321 25.8106L69.6474 25.9453C69.7701 26.4778 69.8928 27.0107 70.0157 27.5442L70.6004 27.4096ZM102.234 49.6218L102.813 49.464C102.767 49.2946 102.72 49.1239 102.673 48.9521L102.094 49.1099L101.515 49.2677C101.562 49.4396 101.609 49.6102 101.655 49.7796L102.234 49.6218ZM111.734 73.4323L111.166 73.6254L111.167 73.6293L111.736 73.4363L112.304 73.2433L112.302 73.2393L111.734 73.4323ZM111.736 73.4363L111.167 73.6286C111.548 74.754 111.928 75.8784 112.307 77.0027L112.875 76.8114L113.444 76.6201C113.065 75.4946 112.685 74.3693 112.304 73.244L111.736 73.4363ZM46.0993 12.09L45.849 12.6354L45.8531 12.6372L46.1034 12.0919L46.3536 11.5466L46.3496 11.5447L46.0993 12.09ZM38.4665 68.8277L39.0588 68.7317C39.0537 68.7005 39.0486 68.6693 39.0436 68.6378L38.4513 68.7338L37.859 68.8298C37.8641 68.8613 37.8692 68.8926 37.8742 68.9237L38.4665 68.8277ZM50.9744 14.327L51.2244 13.7816C49.5947 13.0344 47.9735 12.2902 46.3587 11.5489L46.1083 12.0942L45.858 12.6395C47.4728 13.3807 49.0943 14.1251 50.7243 14.8724L50.9744 14.327ZM46.1083 12.0942L46.3587 11.5489L46.3537 11.5466L46.1034 12.0919L45.853 12.6372L45.858 12.6395L46.1083 12.0942ZM22.6147 37.375H22.0147C22.0147 38.8133 22.7148 39.9337 23.5349 40.7277C24.3496 41.5164 25.3201 42.0226 25.984 42.2541L26.1815 41.6875L26.379 41.1209C25.854 40.9379 25.041 40.5155 24.3696 39.8655C23.7035 39.2206 23.2147 38.3921 23.2147 37.375H22.6147ZM24.5284 6.04532L24.1689 5.56496C24.0477 5.65568 23.9309 5.7424 23.8171 5.82684L24.1748 6.30861L24.5324 6.79038C24.6459 6.70612 24.7646 6.61803 24.888 6.52568L24.5284 6.04532ZM24.1748 6.30861L23.8171 5.82688L23.8158 5.82786L24.1734 6.3096L24.5311 6.79133L24.5324 6.79034L24.1748 6.30861ZM61.7749 2.5543L62.2581 2.91006L62.2593 2.90837L61.7761 2.55261L61.293 2.19686L61.2918 2.19855L61.7749 2.5543ZM61.5617 2.84068L60.5991 2.12413L62.5223 3.55987L61.5617 2.84068ZM25.407 6.27337L24.2374 6.54207L24.2392 6.54949L25.407 6.27337ZM24.5284 6.04532L25.2475 7.00609L25.258 6.99808L24.5284 6.04532ZM22.95 7.26957L22.1539 6.37167L22.152 6.37337L22.95 7.26957ZM3.14533 21.5284L3.66779 22.6087L3.6743 22.6055L3.14533 21.5284ZM2.32633 23.1967L3.507 22.9822L3.50538 22.9733L3.50362 22.9644L2.32633 23.1967ZM10.5311 67.4135L11.71 67.1895L11.7098 67.1883L10.5311 67.4135ZM14.1645 84.2889L12.9905 84.5374L12.9917 84.5433L14.1645 84.2889ZM15.1622 89.654L13.9808 89.8647L13.9819 89.8709L15.1622 89.654ZM16.0109 89.966L15.4619 88.899L15.4474 88.9065L15.433 88.9144L16.0109 89.966ZM17.7234 89.0058L17.0508 88.012L17.0485 88.0136L17.7234 89.0058ZM34.3712 77.6396L33.6814 76.6577L33.6783 76.6598L34.3712 77.6396ZM38.4513 68.7338L39.6358 68.5418L39.6354 68.5393L38.4513 68.7338ZM37.0218 62.0485L35.8388 62.2502L35.8525 62.3303L35.8769 62.408L37.0218 62.0485ZM32.9864 38.3798L34.1693 38.1781L34.1633 38.1429L34.1552 38.1082L32.9864 38.3798ZM72.2235 25.2612L71.0519 25.5209L71.0617 25.5649L71.0747 25.6081L72.2235 25.2612ZM85.5209 67.3175L84.383 67.6985L84.3834 67.6997L85.5209 67.3175ZM91.9091 70.9183L91.5021 72.0471L91.5033 72.0476L91.9091 70.9183ZM106.294 75.6472L105.91 76.7844L105.916 76.7861L106.294 75.6472ZM110.284 76.5954L110.814 77.6724L110.822 77.6682L110.284 76.5954ZM108.885 71.7704L110.02 71.3814L110.019 71.3781L108.885 71.7704ZM102.094 49.1099L100.936 49.4252L100.937 49.4255L102.094 49.1099ZM97.508 28.6218L98.689 28.4092L98.6888 28.408L97.508 28.6218ZM96.3018 15.1671L95.1062 15.2698L95.1063 15.2703L96.3018 15.1671ZM92.7429 11.6024L92.3747 12.7445L92.3782 12.7457L92.7429 11.6024ZM82.513 8.03772L82.9055 6.90371L82.9035 6.90303L82.513 8.03772ZM68.337 2.81668L67.9221 3.94268L67.925 3.94374L68.337 2.81668ZM67.3393 3.4288L68.5111 3.16998L68.5094 3.16228L68.5076 3.15459L67.3393 3.4288ZM34.9371 37.7556L36.1166 37.5351L36.1113 37.5066L36.1046 37.4783L34.9371 37.7556ZM56.4095 40.4442L57.5834 40.1952L57.5815 40.186L57.5793 40.1768L56.4095 40.4442ZM50.9297 17.6156L49.7634 17.898L49.7658 17.9076L50.9297 17.6156ZM48.4132 15.6712L47.9007 16.7563L47.9063 16.7589L48.4132 15.6712ZM37.0218 10.1621L36.496 11.2408L36.4977 11.2416L37.0218 10.1621ZM28.4298 6.22536L28.1367 7.38904L28.1453 7.39115L28.4298 6.22536ZM27.5959 6.82548L26.4271 7.09737L26.4285 7.10331L27.5959 6.82548ZM65.2397 82.7286L64.8339 83.8579L64.8371 83.859L65.2397 82.7286ZM66.3863 81.9484L65.2449 82.3188L65.247 82.3254L66.3863 81.9484ZM62.7828 70.4982L61.6089 70.7471L61.6167 70.784L61.6268 70.8204L62.7828 70.4982ZM39.4043 61.6524L40.5961 61.512L40.5913 61.4718L40.5839 61.4319L39.4043 61.6524ZM41.0423 73.0067L42.2327 72.8556L42.2323 72.8525L41.0423 73.0067ZM42.7994 75.0711L42.4746 76.2263L42.4806 76.228L42.7994 75.0711ZM47.9814 76.5594L47.5854 77.6922L47.5856 77.6922L47.9814 76.5594ZM65.2695 4.23296L64.0989 4.49701L64.0999 4.5012L65.2695 4.23296ZM63.5869 3.95691L64.5216 4.70947L64.5276 4.70189L63.5869 3.95691ZM59.3579 9.87408L58.3872 9.16855L58.3871 9.16866L59.3579 9.87408ZM54.3844 16.1273L53.4437 15.3823L53.4415 15.385L54.3844 16.1273ZM53.2527 18.9599L54.4385 18.776L54.4372 18.7679L54.4359 18.7597L53.2527 18.9599ZM55.248 30.4822L56.4188 30.219L56.4184 30.2173L55.248 30.4822ZM58.1815 41.0323L59.3518 40.7671L59.3441 40.7328L59.3343 40.699L58.1815 41.0323ZM70.6004 27.4096L69.431 27.6789L69.4401 27.7185L69.4519 27.7574L70.6004 27.4096ZM68.6497 82.1525L67.5085 82.5236L67.5118 82.5335L67.5152 82.5435L68.6497 82.1525ZM69.8708 82.3805L69.0621 81.4939L69.0566 81.4989L69.0512 81.504L69.8708 82.3805ZM83.3915 69.9821L84.2102 70.8595L84.218 70.8521L83.3915 69.9821ZM83.6894 68.1697L84.8218 67.7727L84.8194 67.7659L84.8169 67.7591L83.6894 68.1697ZM79.7582 57.6436L80.9236 57.3574L80.9159 57.3263L80.9067 57.2957L79.7582 57.6436ZM64.8228 70.3421L63.6525 70.6073L63.664 70.6581L63.6798 70.7076L64.8228 70.3421ZM69.9589 15.1451L71.1296 14.8818V14.8818L69.9589 15.1451ZM73.7692 4.84495L73.345 5.96747V5.96747L73.7692 4.84495ZM85.3999 9.0631L84.9943 10.1925V10.1925L85.3999 9.0631ZM96.5975 19.4888L95.3996 19.5601V19.5601L96.5975 19.4888ZM102.234 49.6218L103.392 49.3062V49.3062L102.234 49.6218ZM109.596 73.6604L110.713 73.2208V73.2208L109.596 73.6604ZM106.949 75.8712L107.342 74.7373V74.7373L106.949 75.8712ZM100.343 73.719L100.706 72.5752V72.5752L100.343 73.719ZM89.6987 70.1947L89.3454 71.3415V71.3415L89.6987 70.1947ZM82.4715 59.1903L81.3228 59.5373L81.3372 59.585L81.3555 59.6313L82.4715 59.1903ZM70.2321 25.8106L71.4015 25.5413L71.4014 25.5409L70.2321 25.8106ZM57.3887 38.334L58.5398 37.9949L58.5393 37.9931L57.3887 38.334ZM53.5335 20.7912L54.7198 20.6103L54.7197 20.6101L53.5335 20.7912ZM56.4151 13.6267L57.3404 14.3908L57.3404 14.3908L56.4151 13.6267ZM62.0682 6.05245L61.0825 5.36805L61.0825 5.36806L62.0682 6.05245ZM67.6444 79.0608L68.7856 78.6897L68.7851 78.6883L67.6444 79.0608ZM82.1986 64.4385L83.306 63.9763V63.9763L82.1986 64.4385ZM72.4167 80.0599L71.6121 79.1695L71.6084 79.1729L72.4167 80.0599ZM65.5932 79.5207L64.4529 79.8945V79.8945L65.5932 79.5207ZM61.1705 81.2637L61.5773 80.1347H61.5773L61.1705 81.2637ZM44.1286 75.4291L43.8199 76.5887H43.8199L44.1286 75.4291ZM40.2901 67.8697L41.476 67.686V67.686L40.2901 67.8697ZM32.072 25.6793L33.2397 25.4024V25.4024L32.072 25.6793ZM33.5366 8.44734L33.0042 9.52272V9.52272L33.5366 8.44734ZM39.1949 11.2246L38.6659 12.3017L38.6665 12.302L39.1949 11.2246ZM48.6851 15.7962L49.1835 14.7046L49.1834 14.7046L48.6851 15.7962ZM53.533 20.788L52.3467 20.9689L52.3467 20.9691L53.533 20.788ZM70.2286 25.7954L69.0592 26.0648L69.0593 26.0652L70.2286 25.7954ZM67.6434 79.0576L66.5023 79.4289L66.5026 79.4301L67.6434 79.0576ZM27.7058 15.9725L28.8734 15.6955V15.6955L27.7058 15.9725ZM38.4665 68.8277L37.282 69.0197V69.0197L38.4665 68.8277ZM21.4285 86.505L20.7577 85.51H20.7577L21.4285 86.505ZM14.9426 88.4091L16.1245 88.2018V88.2018L14.9426 88.4091ZM12.7715 77.9516L11.6005 78.2138V78.2138L12.7715 77.9516ZM24.1734 6.3096L24.8887 7.27314L24.8887 7.27313L24.1734 6.3096ZM72.4199 80.057L73.2244 80.9474L73.2281 80.944L72.4199 80.057ZM57.3902 38.3389L56.2391 38.678L56.2396 38.6797L57.3902 38.3389ZM61.7749 2.5543L62.7385 3.26953L60.8123 1.83775L61.7749 2.5543ZM38.9005 11.0802L38.3722 12.1576L38.3722 12.1576L38.9005 11.0802ZM39.1927 11.2235L39.7217 10.1464L39.721 10.1461L39.1927 11.2235ZM25.407 6.27337L26.5765 6.00467C26.4063 5.26377 25.7965 4.90611 25.3534 4.79092C24.8932 4.67124 24.2945 4.71305 23.7989 5.09256L24.5284 6.04532L25.258 6.99808C25.0602 7.14954 24.8636 7.14334 24.7495 7.11369C24.6527 7.08851 24.3332 6.9589 24.2375 6.54207L25.407 6.27337ZM22.95 7.26957L22.152 6.37337C16.1895 11.6827 10.1577 16.7477 2.61635 20.4513L3.14533 21.5284L3.6743 22.6055C11.53 18.7476 17.7681 13.4906 23.748 8.16576L22.95 7.26957ZM3.14533 21.5284L2.62287 20.4481C2.01851 20.7404 1.63062 21.2977 1.41847 21.7419C1.20662 22.1854 1.02767 22.8142 1.14905 23.4291L2.32633 23.1967L3.50362 22.9644C3.51602 23.0272 3.50377 23.0358 3.51527 22.9762C3.52534 22.9241 3.54763 22.8527 3.58413 22.7762C3.62073 22.6996 3.66079 22.6406 3.69206 22.6043C3.72686 22.5639 3.72463 22.5812 3.66778 22.6087L3.14533 21.5284ZM2.32633 23.1967L1.14567 23.4113C3.82625 38.1636 6.53711 52.9066 9.35246 67.6388L10.5311 67.4135L11.7098 67.1883C8.89645 52.4666 6.18708 37.7318 3.507 22.9822L2.32633 23.1967ZM15.1622 89.654L13.9819 89.8709C14.1102 90.569 14.6383 90.9665 15.0732 91.1258C15.5188 91.289 16.0825 91.296 16.5889 91.0177L16.0109 89.966L15.433 88.9144C15.6117 88.8161 15.7809 88.8291 15.8988 88.8723C16.0062 88.9116 16.2736 89.063 16.3424 89.437L15.1622 89.654ZM16.0109 89.966L16.5599 91.0331C17.2424 90.682 17.8491 90.3716 18.3982 89.9981L17.7234 89.0058L17.0485 88.0136C16.6446 88.2883 16.1792 88.5299 15.4619 88.899L16.0109 89.966ZM38.4513 68.7338L39.6354 68.5393C39.2038 65.9122 38.8055 63.7235 38.1667 61.689L37.0218 62.0485L35.8769 62.408C36.4591 64.2623 36.8351 66.2983 37.2672 68.9284L38.4513 68.7338ZM102.094 49.1099L103.252 48.7946C101.416 42.0512 99.9195 35.2444 98.689 28.4092L97.508 28.6218L96.327 28.8344C97.5683 35.7299 99.0797 42.6059 100.936 49.4252L102.094 49.1099ZM96.3018 15.1671L97.4974 15.0645C97.392 13.8359 96.9179 12.8351 96.0885 12.0528C95.2974 11.3065 94.2515 10.8241 93.1077 10.4592L92.7429 11.6024L92.3782 12.7457C93.3786 13.0648 94.0303 13.4106 94.4417 13.7986C94.8147 14.1505 95.0479 14.59 95.1062 15.2698L96.3018 15.1671ZM68.337 2.81668L68.7519 1.69069C68.1314 1.46205 67.4721 1.55588 66.9743 1.86245C66.4804 2.16666 65.9665 2.8316 66.1711 3.70301L67.3393 3.4288L68.5076 3.15459C68.5506 3.33788 68.5195 3.52285 68.4451 3.66757C68.3771 3.79978 68.2888 3.87154 68.233 3.90593C68.1298 3.96946 68.0214 3.97927 67.9221 3.94267L68.337 2.81668ZM56.4095 40.4442L57.5793 40.1768C55.8351 32.5463 54.0015 24.9286 52.0937 17.3236L50.9297 17.6156L49.7658 17.9076C51.6699 25.4977 53.4995 33.099 55.2397 40.7116L56.4095 40.4442ZM28.4298 6.22536L28.7229 5.06171C28.1431 4.91565 27.5445 5.0372 27.0925 5.36764C26.6388 5.69929 26.2492 6.33228 26.4271 7.09736L27.5959 6.82548L28.7647 6.55359C28.8534 6.9346 28.6424 7.20752 28.5089 7.30512C28.377 7.40152 28.24 7.41504 28.1367 7.38901L28.4298 6.22536ZM65.2397 82.7286L64.8371 83.859C65.5265 84.1046 66.2576 83.9851 66.796 83.6182C67.3409 83.2468 67.8268 82.4821 67.5256 81.5715L66.3863 81.9484L65.247 82.3254C65.1978 82.1764 65.2064 82.0073 65.2671 81.8635C65.3218 81.734 65.4002 81.6651 65.4443 81.635C65.5248 81.5801 65.5932 81.5807 65.6423 81.5982L65.2397 82.7286ZM41.0423 73.0067L39.8518 73.1577C39.9284 73.7612 40.0838 74.4426 40.5419 75.0344C41.0139 75.6442 41.6831 76.0037 42.4746 76.2263L42.7994 75.0711L43.1242 73.9159C42.6351 73.7784 42.4927 73.6338 42.4398 73.5654C42.373 73.4791 42.2902 73.3083 42.2327 72.8556L41.0423 73.0067ZM65.2695 4.23296L66.4401 3.96891C66.2205 2.99552 65.369 2.55622 64.7348 2.45179C64.0868 2.34508 63.2123 2.49692 62.6461 3.21193L63.5869 3.95691L64.5276 4.70189C64.4687 4.77633 64.4036 4.80573 64.3748 4.81474C64.3606 4.81916 64.3521 4.8199 64.3496 4.82005C64.347 4.82021 64.3459 4.82007 64.3449 4.8199C64.3439 4.81974 64.3383 4.81879 64.3276 4.81434C64.3171 4.80996 64.2966 4.79999 64.2702 4.77952C64.2136 4.73551 64.1315 4.64149 64.0989 4.49701L65.2695 4.23296ZM54.3844 16.1273L53.4415 15.385C53.1308 15.7797 52.7646 16.3753 52.4891 16.9894C52.3498 17.3 52.2212 17.6427 52.1375 17.9887C52.0572 18.3207 51.9979 18.7368 52.0695 19.1601L53.2527 18.9599L54.4359 18.7597C54.4405 18.7869 54.4277 18.7289 54.4702 18.553C54.5094 18.3912 54.5799 18.1923 54.6789 17.9718C54.8799 17.5237 55.1466 17.0991 55.3272 16.8697L54.3844 16.1273ZM68.6497 82.1525L67.5152 82.5435C67.7714 83.287 68.4314 83.637 68.9483 83.7372C69.4809 83.8403 70.1657 83.7476 70.6903 83.2571L69.8708 82.3805L69.0512 81.504C69.2036 81.3615 69.3523 81.3708 69.4047 81.381C69.4414 81.3881 69.6769 81.45 69.7842 81.7615L68.6497 82.1525ZM83.3915 69.9821L84.218 70.8521C84.6989 70.3953 84.8914 69.7782 84.958 69.2997C85.027 68.8036 84.9904 68.2537 84.8218 67.7727L83.6894 68.1697L82.5569 68.5667C82.5666 68.5942 82.5806 68.6497 82.5873 68.7297C82.5938 68.808 82.5917 68.8913 82.5808 68.9691C82.5698 69.0481 82.5524 69.1039 82.539 69.1348C82.5251 69.1673 82.5261 69.1491 82.5651 69.112L83.3915 69.9821ZM37.0218 62.0485L38.2047 61.8468L34.1693 38.1781L32.9864 38.3798L31.8035 38.5814L35.8388 62.2502L37.0218 62.0485ZM34.9371 37.7556L33.7575 37.9761L38.2247 61.8729L39.4043 61.6524L40.5839 61.4319L36.1166 37.5351L34.9371 37.7556ZM62.7828 70.4982L63.9567 70.2492L57.5834 40.1952L56.4095 40.4442L55.2356 40.6931L61.6089 70.7471L62.7828 70.4982ZM72.2235 25.2612L73.395 25.0014C72.6704 21.7326 71.9034 18.3224 71.1296 14.8818L69.9589 15.1451L68.7881 15.4084C69.5621 18.8497 70.3282 22.2563 71.0519 25.5209L72.2235 25.2612ZM69.9589 15.1451L71.1296 14.8818C70.2486 10.9644 69.3587 7.00746 68.5111 3.16998L67.3393 3.4288L66.1676 3.68762C67.0164 7.53036 67.9073 11.4918 68.7881 15.4084L69.9589 15.1451ZM68.337 2.81668L67.925 3.94374C69.9089 4.66894 71.6532 5.32813 73.345 5.96747L73.7692 4.84495L74.1934 3.72243C72.5024 3.08339 70.7467 2.41988 68.749 1.68962L68.337 2.81668ZM73.7692 4.84495L73.345 5.96747C76.1446 7.02544 78.7989 8.02861 82.1225 9.17241L82.513 8.03772L82.9035 6.90303C79.6176 5.77221 76.9936 4.78063 74.1934 3.72243L73.7692 4.84495ZM82.513 8.03772L82.1205 9.17173C82.9749 9.46743 83.9385 9.81341 84.9943 10.1925L85.3999 9.0631L85.8054 7.9337C84.7532 7.55591 83.7756 7.20485 82.9055 6.90371L82.513 8.03772ZM85.3999 9.0631L84.9943 10.1925C87.1602 10.9702 89.6982 11.8816 92.3747 12.7445L92.7429 11.6024L93.1112 10.4603C90.4775 9.6112 87.9749 8.71272 85.8054 7.9337L85.3999 9.0631ZM96.3018 15.1671L95.1063 15.2703C95.2287 16.6899 95.3137 18.1158 95.3996 19.5601L96.5975 19.4888L97.7954 19.4175C97.7097 17.9785 97.623 16.5207 97.4974 15.064L96.3018 15.1671ZM96.5975 19.4888L95.3996 19.5601C95.5809 22.6061 95.7658 25.735 96.3272 28.8356L97.508 28.6218L98.6888 28.408C98.1572 25.4724 97.9781 22.4875 97.7954 19.4175L96.5975 19.4888ZM102.094 49.1099L100.937 49.4255L101.076 49.9374L102.234 49.6218L103.392 49.3062L103.252 48.7943L102.094 49.1099ZM102.234 49.6218L101.076 49.9374C103.35 58.2778 104.847 63.7697 107.75 72.1628L108.885 71.7704L110.019 71.3781C107.143 63.0672 105.664 57.6426 103.392 49.3062L102.234 49.6218ZM108.885 71.7704L107.749 72.1595C107.976 72.821 108.242 73.4952 108.48 74.1001L109.596 73.6604L110.713 73.2208C110.471 72.6067 110.226 71.9831 110.02 71.3814L108.885 71.7704ZM109.596 73.6604L108.48 74.1001C108.782 74.8661 109.024 75.4858 109.151 75.9377C109.218 76.1729 109.224 76.2664 109.224 76.2663C109.224 76.2633 109.222 76.1627 109.28 76.0212C109.347 75.8554 109.493 75.6497 109.747 75.5225L110.284 76.5954L110.822 77.6682C111.566 77.2954 111.625 76.5333 111.624 76.2602C111.623 75.9238 111.543 75.5746 111.461 75.2863C111.294 74.6914 110.997 73.9416 110.713 73.2208L109.596 73.6604ZM110.284 76.5954L109.755 75.5184C109.941 75.4267 110.032 75.4732 109.833 75.4545C109.684 75.4406 109.47 75.3998 109.19 75.3275C108.631 75.183 107.974 74.9563 107.342 74.7373L106.949 75.8712L106.556 77.0052C107.166 77.2161 107.919 77.4778 108.589 77.651C108.924 77.7375 109.278 77.813 109.609 77.844C109.889 77.8702 110.37 77.8903 110.814 77.6723L110.284 76.5954ZM106.949 75.8712L107.342 74.7373C107.11 74.6571 106.881 74.5777 106.672 74.5083L106.294 75.6472L105.916 76.7861C106.107 76.8497 106.321 76.9237 106.556 77.0052L106.949 75.8712ZM106.294 75.6472L106.677 74.51C104.555 73.7953 102.606 73.1776 100.706 72.5752L100.343 73.719L99.9806 74.8629C101.883 75.466 103.812 76.0776 105.91 76.7844L106.294 75.6472ZM100.343 73.719L100.706 72.5752C97.9499 71.7014 95.2946 70.8595 92.3148 69.7889L91.9091 70.9183L91.5033 72.0476C94.5317 73.1356 97.2279 73.9903 99.9806 74.8629L100.343 73.719ZM91.9091 70.9183L92.316 69.7894C91.4732 69.4855 90.7118 69.2511 90.052 69.0479L89.6987 70.1947L89.3454 71.3415C90.0081 71.5456 90.7192 71.7649 91.5021 72.0471L91.9091 70.9183ZM89.6987 70.1947L90.052 69.0479C88.9012 68.6933 88.1621 68.458 87.618 68.1345C87.1561 67.8599 86.8596 67.534 86.6584 66.9353L85.5209 67.3175L84.3834 67.6997C84.7782 68.8747 85.4658 69.647 86.3914 70.1974C87.2349 70.6989 88.2866 71.0153 89.3454 71.3415L89.6987 70.1947ZM85.5209 67.3175L86.6589 66.9366C85.7486 64.2175 84.688 61.5342 83.5876 58.7493L82.4715 59.1903L81.3555 59.6313C82.4603 62.4273 83.4965 65.0505 84.383 67.6985L85.5209 67.3175ZM70.2321 25.8106L69.0627 26.08L69.431 27.6789L70.6004 27.4096L71.7698 27.1402L71.4015 25.5413L70.2321 25.8106ZM57.3887 38.334L58.5393 37.9931C57.7396 35.2936 56.9914 32.7663 56.4188 30.219L55.248 30.4822L54.0773 30.7454C54.6705 33.3845 55.4427 35.9894 56.2382 38.6748L57.3887 38.334ZM55.248 30.4822L56.4184 30.2173C55.7029 27.0553 55.2142 23.853 54.7198 20.6103L53.5335 20.7912L52.3472 20.972C52.8395 24.2008 53.3401 27.4878 54.0776 30.747L55.248 30.4822ZM54.3844 16.1273L55.3251 16.8724C56.1173 15.8721 56.7531 15.102 57.3404 14.3908L56.4151 13.6267L55.4898 12.8627C54.9018 13.5748 54.2524 14.3612 53.4437 15.3823L54.3844 16.1273ZM56.4151 13.6267L57.3404 14.3908C58.3185 13.2063 59.1625 12.1843 60.3286 10.5795L59.3579 9.87408L58.3871 9.16866C57.2672 10.7099 56.463 11.684 55.4898 12.8627L56.4151 13.6267ZM59.3579 9.87408L60.3286 10.5796C61.6074 8.82024 62.4363 7.62638 63.0539 6.73684L62.0682 6.05245L61.0825 5.36806C60.4681 6.25299 59.6507 7.43018 58.3872 9.16855L59.3579 9.87408ZM62.0682 6.05245L63.0539 6.73684C63.7003 5.80583 64.091 5.2443 64.5216 4.70945L63.5869 3.95691L62.6521 3.20437C62.1574 3.81893 61.7153 4.45665 61.0825 5.36805L62.0682 6.05245ZM79.7582 57.6436L78.5928 57.9298C79.1849 60.3401 80.1605 62.671 81.0912 64.9008L82.1986 64.4385L83.306 63.9763C82.3618 61.7143 81.4636 59.5559 80.9236 57.3574L79.7582 57.6436ZM82.1986 64.4385L81.0912 64.9007C81.6106 66.1451 82.1174 67.3598 82.5618 68.5803L83.6894 68.1697L84.8169 67.7591C84.3503 66.4777 83.8217 65.2118 83.306 63.9763L82.1986 64.4385ZM72.4167 80.0599L71.6084 79.1729C70.7695 79.9373 69.9212 80.7103 69.0621 81.4939L69.8708 82.3805L70.6795 83.2671C71.538 82.4839 72.3859 81.7114 73.2249 80.9469L72.4167 80.0599ZM62.7828 70.4982L61.6268 70.8204C62.4717 73.8511 63.4564 76.8546 64.4529 79.8945L65.5932 79.5207L66.7335 79.1469C65.7341 76.098 64.7666 73.1459 63.9387 70.1759L62.7828 70.4982ZM65.5932 79.5207L64.4529 79.8945C64.7166 80.6988 64.9811 81.5058 65.2449 82.3188L66.3863 81.9484L67.5277 81.5781C67.2626 80.7611 66.997 79.9507 66.7335 79.1469L65.5932 79.5207ZM65.2397 82.7286L65.6456 81.5993C64.2767 81.1074 62.9221 80.6193 61.5773 80.1347L61.1705 81.2637L60.7637 82.3926C62.1084 82.8771 63.4639 83.3656 64.8339 83.8579L65.2397 82.7286ZM61.1705 81.2637L61.5773 80.1347C57.118 78.5279 52.7656 76.9596 48.3771 75.4265L47.9814 76.5594L47.5856 77.6922C51.9612 79.2208 56.3025 80.7851 60.7637 82.3926L61.1705 81.2637ZM47.9814 76.5594L48.3773 75.4266C47.0717 74.9702 45.7306 74.6138 44.4374 74.2695L44.1286 75.4291L43.8199 76.5887C45.1286 76.9371 46.3806 77.2711 47.5854 77.6922L47.9814 76.5594ZM44.1286 75.4291L44.4374 74.2695C43.9935 74.1513 43.5549 74.0345 43.1182 73.9142L42.7994 75.0711L42.4806 76.228C42.9291 76.3515 43.3777 76.471 43.8199 76.5887L44.1286 75.4291ZM41.0423 73.0067L42.2323 72.8525C42.0078 71.1195 41.7405 69.3939 41.476 67.686L40.2901 67.8697L39.1043 68.0533C39.3695 69.7662 39.6322 71.4623 39.8522 73.1608L41.0423 73.0067ZM40.2901 67.8697L41.476 67.686C41.1548 65.6119 40.8377 63.5637 40.5961 61.512L39.4043 61.6524L38.2125 61.7928C38.4601 63.8951 38.7842 65.9865 39.1043 68.0533L40.2901 67.8697ZM34.9371 37.7556L36.1046 37.4783C35.1555 33.4825 34.2018 29.4602 33.2397 25.4024L32.072 25.6793L30.9044 25.9562C31.8665 30.0139 32.8204 34.0365 33.7695 38.0329L34.9371 37.7556ZM32.072 25.6793L33.2397 25.4024C31.7715 19.2106 30.2837 12.9361 28.7633 6.54765L27.5959 6.82548L26.4285 7.10331C27.9487 13.4907 29.4362 19.7642 30.9044 25.9562L32.072 25.6793ZM28.4298 6.22536L28.1453 7.39115C29.2067 7.65015 30.0942 8.08183 33.0042 9.52272L33.5366 8.44734L34.0691 7.37195C31.2632 5.98256 30.0958 5.3967 28.7143 5.05957L28.4298 6.22536ZM33.5366 8.44734L33.0042 9.52272C33.9441 9.98814 35.0847 10.5529 36.496 11.2408L37.0218 10.1621L37.5475 9.08345C36.1436 8.39914 35.0088 7.83723 34.0691 7.37195L33.5366 8.44734ZM39.1949 11.2246L38.6665 12.302C40.917 13.4056 43.7976 14.8182 47.9007 16.7563L48.4132 15.6712L48.9257 14.5862C44.8391 12.6559 41.9712 11.2495 39.7232 10.1471L39.1949 11.2246ZM48.4132 15.6712L47.9063 16.7589C47.9992 16.8022 48.0946 16.8457 48.1868 16.8878L48.6851 15.7962L49.1834 14.7046C49.0896 14.6617 49.0029 14.6221 48.9201 14.5835L48.4132 15.6712ZM48.6851 15.7962L48.1868 16.8878C48.6655 17.1064 49.0704 17.295 49.3862 17.5139C49.7072 17.7365 49.7567 17.8701 49.7634 17.898L50.9297 17.6156L52.096 17.3333C51.8865 16.4676 51.2717 15.9008 50.7536 15.5415C50.2302 15.1787 49.621 14.9043 49.1835 14.7046L48.6851 15.7962ZM53.2527 18.9599L52.0669 19.1438C52.161 19.7509 52.2537 20.3589 52.3467 20.9689L53.533 20.788L54.7193 20.6071C54.6264 19.9976 54.5332 19.3866 54.4385 18.776L53.2527 18.9599ZM53.533 20.788L52.3467 20.9691L52.3472 20.9722L53.5335 20.7912L54.7197 20.6101L54.7193 20.6069L53.533 20.788ZM70.2321 25.8106L71.4014 25.5409L71.3979 25.5257L70.2286 25.7954L69.0593 26.0652L69.0628 26.0804L70.2321 25.8106ZM70.2286 25.7954L71.398 25.5261C69.7534 18.3861 68.1285 11.3311 66.4391 3.96473L65.2695 4.23296L64.0999 4.5012C65.7895 11.8688 67.4147 18.9249 69.0592 26.0648L70.2286 25.7954ZM64.8228 70.3421L63.6798 70.7076C64.5254 73.3522 65.4817 76.2916 66.5023 79.4289L67.6434 79.0576L68.7845 78.6864C67.7634 75.5476 66.8092 72.6144 65.9658 69.9766L64.8228 70.3421ZM67.6434 79.0576L66.5026 79.4301L66.5037 79.4332L67.6444 79.0608L68.7851 78.6883L68.7841 78.6852L67.6434 79.0576ZM67.6444 79.0608L66.5032 79.4318L67.5085 82.5236L68.6497 82.1525L69.7909 81.7814L68.7856 78.6897L67.6444 79.0608ZM25.407 6.27337L24.2392 6.54949C25.011 9.81378 25.7775 13.0439 26.5382 16.2496L27.7058 15.9725L28.8734 15.6955C28.1126 12.4896 27.3463 9.26044 26.5748 5.99725L25.407 6.27337ZM27.7058 15.9725L26.5382 16.2496C28.3318 23.8078 30.0931 31.2298 31.8175 38.6514L32.9864 38.3798L34.1552 38.1082C32.4293 30.6802 30.6667 23.2527 28.8734 15.6955L27.7058 15.9725ZM38.4513 68.7338L37.2667 68.9258L37.282 69.0197L38.4665 68.8277L39.651 68.6357L39.6358 68.5418L38.4513 68.7338ZM38.4665 68.8277L37.282 69.0197C37.4983 70.354 37.6448 71.2679 37.6838 71.9885C37.7214 72.6833 37.6493 73.0778 37.5059 73.3908C37.3563 73.717 37.0703 74.0836 36.4453 74.615C35.8136 75.152 34.9351 75.7768 33.6814 76.6577L34.3712 77.6396L35.0611 78.6215C36.2868 77.7603 37.2661 77.0672 37.9998 76.4435C38.7401 75.8142 39.3271 75.1773 39.6877 74.3906C40.0543 73.5906 40.1292 72.7626 40.0803 71.8587C40.0328 70.9805 39.8591 69.9194 39.651 68.6356L38.4665 68.8277ZM34.3712 77.6396L33.6783 76.6598C29.4367 79.6595 25.1032 82.5807 20.7577 85.51L21.4285 86.505L22.0992 87.5001C26.4409 84.5734 30.7968 81.6371 35.0641 78.6193L34.3712 77.6396ZM21.4285 86.505L20.7577 85.51C19.5221 86.3429 18.2854 87.1765 17.0508 88.012L17.7234 89.0058L18.3959 89.9997C19.6284 89.1656 20.8632 88.3332 22.0992 87.5001L21.4285 86.505ZM15.1622 89.654L16.3435 89.4433C16.2683 89.0216 16.1959 88.6089 16.1245 88.2018L14.9426 88.4091L13.7606 88.6163C13.8319 89.023 13.9049 89.439 13.9808 89.8647L15.1622 89.654ZM14.9426 88.4091L16.1245 88.2018C15.8732 86.7686 15.6333 85.3997 15.3372 84.0345L14.1645 84.2889L12.9917 84.5433C13.2759 85.8535 13.5078 87.1745 13.7606 88.6163L14.9426 88.4091ZM14.1645 84.2889L15.3385 84.0405C14.8892 81.9177 14.4149 79.7994 13.9425 77.6894L12.7715 77.9516L11.6005 78.2138C12.0734 80.3261 12.5446 82.4306 12.9905 84.5374L14.1645 84.2889ZM12.7715 77.9516L13.9425 77.6894C13.1562 74.1778 12.3751 70.689 11.71 67.1895L10.5311 67.4135L9.35224 67.6376C10.0258 71.1818 10.8156 74.7086 11.6005 78.2138L12.7715 77.9516ZM22.95 7.26957L23.7461 8.16746C24.0588 7.8902 24.4121 7.62695 24.8887 7.27314L24.1734 6.3096L23.4582 5.34605C23.001 5.6854 22.5593 6.01228 22.1539 6.37167L22.95 7.26957ZM64.8228 70.3421L65.9931 70.0769L59.3518 40.7671L58.1815 41.0323L57.0112 41.2975L63.6525 70.6073L64.8228 70.3421ZM79.7582 57.6436L80.9067 57.2957L71.7489 27.0617L70.6004 27.4096L69.4519 27.7574L78.6097 57.9915L79.7582 57.6436ZM72.2235 25.2612L71.0747 25.6081L81.3228 59.5373L82.4715 59.1903L83.6203 58.8434L73.3722 24.9142L72.2235 25.2612ZM83.3915 69.9821L82.5729 69.1047C79.018 72.4214 75.4124 75.7068 71.6116 79.17L72.4199 80.057L73.2281 80.944C77.027 77.4825 80.6432 74.1875 84.2102 70.8595L83.3915 69.9821ZM72.4199 80.057L71.6153 79.1667L71.6121 79.1695L72.4167 80.0599L73.2212 80.9503L73.2244 80.9474L72.4199 80.057ZM58.1815 41.0323L59.3343 40.699C59.0685 39.7796 58.802 38.8799 58.5408 37.998L57.3902 38.3389L56.2396 38.6797C56.5012 39.5627 56.7655 40.455 57.0287 41.3656L58.1815 41.0323ZM57.3902 38.3389L58.5413 37.9998L58.5398 37.9949L57.3887 38.334L56.2376 38.6731L56.2391 38.678L57.3902 38.3389ZM61.5617 2.84068L62.5243 3.55724L62.7375 3.27086L61.7749 2.5543L60.8123 1.83775L60.5991 2.12413L61.5617 2.84068ZM61.7749 2.5543L60.8113 1.83907C60.7401 1.93509 60.6706 2.02868 60.6011 2.1215L61.5617 2.84068L62.5223 3.55987C62.5953 3.46246 62.6677 3.36492 62.7385 3.26953L61.7749 2.5543ZM39.1949 11.2246L39.7239 10.1475L39.7217 10.1464L39.1927 11.2235L38.6637 12.3006L38.6659 12.3017L39.1949 11.2246ZM39.1927 11.2235L39.721 10.1461C39.6225 10.0977 39.525 10.0499 39.4287 10.0027L38.9005 11.0802L38.3722 12.1576C38.4684 12.2048 38.5657 12.2526 38.6644 12.3009L39.1927 11.2235ZM24.1734 6.3096L24.8887 7.27313C25.0025 7.18868 25.1225 7.09955 25.2475 7.00603L24.5284 6.04532L23.8094 5.08461C23.6888 5.17485 23.5725 5.26122 23.4582 5.34606L24.1734 6.3096ZM37.0218 10.1621L36.4977 11.2416C37.0762 11.5225 37.6947 11.8255 38.3722 12.1576L38.9005 11.0802L39.4288 10.0027C38.7514 9.67062 38.1291 9.3658 37.5459 9.08264L37.0218 10.1621Z" fill="#FAF7F1" mask="url(#path-1-inside-1_0_11)"/>
</g>
<path id="Vector_2" d="M20.3748 19.1875C20.49 19.1893 20.5498 19.2261 20.6082 19.3125C20.6861 19.4277 20.7552 19.6339 20.7899 19.9521C20.8588 20.584 20.7708 21.4331 20.6483 22.2568V22.2578C20.5461 22.9539 20.49 24.0023 20.4324 25.041C20.3738 26.0985 20.3136 27.1552 20.2069 27.917L20.2059 27.9219C19.9102 30.191 20.8277 31.7458 22.1541 32.8604C23.444 33.9442 25.1494 34.6345 26.4549 35.2158L26.4578 35.2168C27.0417 35.4727 27.7803 35.7751 28.3778 36.1504C28.6746 36.3369 28.9072 36.524 29.0584 36.707C29.1987 36.877 29.2456 37.0156 29.2459 37.1338C29.2428 37.1405 29.2385 37.1529 29.2274 37.1689C29.1998 37.2085 29.1532 37.2567 29.0897 37.3027C28.9527 37.4019 28.811 37.4384 28.7244 37.4287H28.7215C26.4213 37.1833 24.3921 36.0655 22.0819 35.0342H22.0809C21.5305 34.7882 20.91 34.7806 20.3856 34.9395C19.869 35.096 19.3623 35.4428 19.1551 35.9912L19.1541 35.9941C18.5825 37.5345 18.1342 38.8543 17.4031 40.0869C17.2763 40.2908 16.9045 40.6448 16.4276 40.9043C15.9349 41.1722 15.4999 41.2478 15.2215 41.1387L15.2098 41.1348L15.1375 41.1025C14.9796 41.0162 14.8936 40.8499 14.8895 40.543C14.8847 40.1819 15.0092 39.76 15.1453 39.4785C15.7751 38.2035 16.2714 37.2077 16.5506 36.3984C16.8327 35.5806 16.9287 34.8595 16.6561 34.168C16.3915 33.4971 15.8158 32.9517 15.0125 32.3828C14.2027 31.8093 13.0752 31.1544 11.6141 30.2998L11.6121 30.2988C9.92838 29.3244 8.3891 28.1836 6.99494 26.959L6.40608 26.4287C6.12414 26.1675 5.65671 25.6402 5.41975 25.1133C5.30161 24.8506 5.26303 24.637 5.28596 24.4795C5.30495 24.3493 5.37179 24.2101 5.5926 24.0752L5.59553 24.0723C5.61687 24.059 5.69533 24.026 5.89533 24.0596C6.09223 24.0927 6.3511 24.182 6.67268 24.3369C7.31453 24.6462 8.11137 25.1694 9.00569 25.8213C9.8957 26.47 10.8601 27.2298 11.8367 28.002C12.8101 28.7715 13.796 29.5535 14.7166 30.2363V30.2354C15.1937 30.5912 15.7994 30.6416 16.2928 30.5098C16.7741 30.3811 17.287 30.0348 17.4149 29.4473L17.4168 29.4395C17.6218 28.4192 17.8003 27.2332 17.9852 26.0488C18.1711 24.8576 18.3638 23.6631 18.6004 22.5986C18.8387 21.5263 19.1133 20.6264 19.4461 20.0068C19.7882 19.3702 20.103 19.1832 20.3748 19.1875Z" fill="#C49340" stroke="#C49340"/>
<g id="Group 1214">
<path id="Vector 2" d="M28.8573 43.2647C28.6861 43.159 28.4484 43.2149 28.3265 43.3893C28.2046 43.5638 28.2446 43.7909 28.4158 43.8965L28.6366 43.5806L28.8573 43.2647ZM36.6355 48.1227C36.8402 48.1543 37.045 48.0167 37.0929 47.8152C37.1409 47.6137 37.0138 47.4247 36.8091 47.3931L36.7223 47.7579L36.6355 48.1227ZM28.6366 43.5806L28.4158 43.8965C30.9565 45.4634 32.8422 46.4911 34.17 47.1397C34.8338 47.464 35.3604 47.6946 35.7614 47.8508C36.1546 48.0039 36.4472 48.0936 36.6355 48.1227L36.7223 47.7579L36.8091 47.3931C36.7055 47.3771 36.4749 47.3127 36.0891 47.1624C35.711 47.0152 35.2028 46.7931 34.5516 46.475C33.2493 45.8388 31.384 44.823 28.8573 43.2647L28.6366 43.5806Z" fill="#C49340"/>
<path id="Vector 4" d="M38.6652 49.3306C40.948 51.6306 41.9943 52.2056 42.2321 52.2056" stroke="#C49340" stroke-width="0.75" stroke-linecap="round"/>
<path id="Vector 5" d="M45.7988 55.0806C48.0816 57.3806 49.1279 57.9556 49.3657 57.9556" stroke="#C49340" stroke-width="0.75" stroke-linecap="round"/>
<path id="Vector 6" d="M52.9327 60.8306C55.2155 63.1306 56.2618 63.7056 56.4996 63.7056" stroke="#C49340" stroke-width="0.75" stroke-linecap="round"/>
<path id="Vector 7" d="M62.9285 65.0247C62.7015 65.0239 62.5087 65.1731 62.4978 65.358C62.4869 65.5429 62.662 65.6933 62.889 65.6941L62.9087 65.3594L62.9285 65.0247ZM68.2388 65.1317C68.3853 64.9853 68.3634 64.7751 68.1898 64.6622C68.0161 64.5493 67.7566 64.5764 67.6101 64.7228L67.9244 64.9272L68.2388 65.1317ZM62.9087 65.3594L62.889 65.6941C64.7276 65.7003 65.966 65.6292 66.7718 65.5351C67.1739 65.4882 67.4772 65.4344 67.6977 65.3787C67.8077 65.3509 67.9053 65.3206 67.9876 65.2869C68.0601 65.2572 68.1614 65.209 68.2388 65.1317L67.9244 64.9272L67.6101 64.7228C67.6502 64.6827 67.6809 64.6764 67.6442 64.6914C67.6175 64.7023 67.5673 64.7195 67.4855 64.7401C67.3225 64.7813 67.0665 64.8286 66.6901 64.8726C65.9388 64.9603 64.744 65.0308 62.9285 65.0247L62.9087 65.3594Z" fill="#C49340"/>
<path id="Vector 8" d="M71.6309 61.4C71.5128 61.5534 71.5635 61.7792 71.7442 61.9043C71.9249 62.0293 72.1672 62.0063 72.2853 61.8529L71.9581 61.6265L71.6309 61.4ZM74.4889 57.8531C74.4056 57.6635 74.1766 57.556 73.9774 57.6129C73.7783 57.6698 73.6844 57.8696 73.7678 58.0592L74.1284 57.9561L74.4889 57.8531ZM71.9581 61.6265L72.2853 61.8529C73.2544 60.5942 73.8277 59.7071 74.1502 59.1047C74.311 58.8042 74.4135 58.5672 74.4704 58.3853C74.4988 58.2948 74.5184 58.2101 74.5262 58.133C74.5329 58.0671 74.5365 57.9614 74.4889 57.8531L74.1284 57.9561L73.7678 58.0592C73.7401 57.9961 73.751 57.9607 73.7477 57.9932C73.7455 58.0144 73.7379 58.056 73.7171 58.1225C73.6756 58.2547 73.5918 58.4548 73.4411 58.7364C73.1402 59.2984 72.5887 60.156 71.6309 61.4L71.9581 61.6265Z" fill="#C49340"/>
<path id="Vector 9" d="M73.5478 53.1958C73.605 53.3767 73.8231 53.4665 74.0349 53.3964C74.2468 53.3263 74.3721 53.1228 74.3149 52.9419L73.9314 53.0688L73.5478 53.1958ZM72.3372 48.937C72.1426 48.8659 71.9027 48.9548 71.8012 49.1353C71.6998 49.3159 71.7753 49.5198 71.9698 49.5908L72.1535 49.2639L72.3372 48.937ZM73.9314 53.0688L74.3149 52.9419C73.8606 51.5051 73.4643 50.5565 73.1493 49.9518C72.992 49.6499 72.8519 49.4279 72.7312 49.2719C72.671 49.194 72.612 49.1279 72.5542 49.0752C72.5018 49.0273 72.4291 48.9705 72.3372 48.937L72.1535 49.2639L71.9698 49.5908C71.932 49.577 71.9273 49.5648 71.9559 49.5909C71.9792 49.6121 72.0142 49.6494 72.0603 49.7089C72.1522 49.8277 72.2739 50.0169 72.4212 50.2996C72.7153 50.8641 73.0997 51.7784 73.5478 53.1958L73.9314 53.0688Z" fill="#C49340"/>
<path id="Vector 10" d="M67.4228 46.3677C67.5856 46.4905 67.6131 46.7247 67.4842 46.8908C67.3553 47.0569 67.1188 47.092 66.956 46.9692L67.1894 46.6685L67.4228 46.3677ZM63.5347 43.5564C63.5545 43.3502 63.7382 43.1936 63.9449 43.2065C64.1516 43.2194 64.3031 43.397 64.2832 43.6032L63.909 43.5798L63.5347 43.5564ZM67.1894 46.6685L66.956 46.9692C65.6142 45.9573 64.7744 45.2212 64.2687 44.7073C64.0165 44.4509 63.8409 44.2435 63.727 44.0795C63.6702 43.9979 63.6236 43.9196 63.5906 43.8457C63.5629 43.7835 63.523 43.6777 63.5347 43.5564L63.909 43.5798L64.2832 43.6032C64.2903 43.5296 64.2661 43.4933 64.2798 43.5239C64.2882 43.5429 64.3086 43.5809 64.3501 43.6405C64.4325 43.7592 64.5779 43.9346 64.8145 44.1751C65.2865 44.6547 66.0962 45.3673 67.4228 46.3677L67.1894 46.6685Z" fill="#C49340"/>
<path id="Vector 11" d="M60.2892 40.6177C60.452 40.7405 60.4795 40.9747 60.3506 41.1408C60.2217 41.3069 59.9852 41.342 59.8224 41.2192L60.0558 40.9185L60.2892 40.6177ZM56.4011 37.8064C56.4209 37.6002 56.6046 37.4436 56.8113 37.4565C57.018 37.4694 57.1695 37.647 57.1496 37.8532L56.7754 37.8298L56.4011 37.8064ZM60.0558 40.9185L59.8224 41.2192C58.4806 40.2073 57.6408 39.4712 57.1351 38.9573C56.8829 38.7009 56.7073 38.4935 56.5934 38.3295C56.5366 38.2479 56.4899 38.1696 56.457 38.0957C56.4293 38.0335 56.3894 37.9277 56.4011 37.8064L56.7754 37.8298L57.1496 37.8532C57.1567 37.7796 57.1325 37.7433 57.1462 37.7739C57.1546 37.7929 57.175 37.8309 57.2165 37.8905C57.2989 38.0092 57.4443 38.1846 57.6809 38.4251C58.1529 38.9047 58.9625 39.6173 60.2892 40.6177L60.0558 40.9185Z" fill="#C49340"/>
<path id="Vector 12" d="M52.9444 32.8481C53.0427 33.011 52.9627 33.2272 52.7657 33.3311C52.5688 33.4349 52.3294 33.3871 52.2311 33.2242L52.5877 33.0361L52.9444 32.8481ZM50.5453 29.0718C50.6505 28.8934 50.8925 28.8087 51.0859 28.8828C51.2793 28.9568 51.3509 29.1615 51.2458 29.3399L50.8956 29.2059L50.5453 29.0718ZM52.5877 33.0361L52.2311 33.2242C51.427 31.8919 50.9695 30.9619 50.7253 30.336C50.6034 30.0237 50.5318 29.7797 50.4983 29.5944C50.4816 29.502 50.4729 29.4166 50.4749 29.3401C50.4767 29.2741 50.4865 29.1716 50.5453 29.0718L50.8956 29.2059L51.2458 29.3399C51.2791 29.2834 51.2728 29.2503 51.2719 29.283C51.2714 29.305 51.2738 29.3475 51.286 29.4155C51.3105 29.5507 51.3685 29.7568 51.4826 30.0493C51.7104 30.6331 52.1499 31.5317 52.9444 32.8481L52.5877 33.0361Z" fill="#C49340"/>
<path id="Vector 13" d="M53.552 23.9475C53.4233 24.1045 53.1867 24.1233 53.0234 23.9894C52.8602 23.8555 52.8321 23.6197 52.9608 23.4627L53.2564 23.7051L53.552 23.9475ZM56.4418 20.2079C56.6483 20.1927 56.8347 20.3472 56.858 20.553C56.8813 20.7587 56.7328 20.9379 56.5262 20.9531L56.484 20.5805L56.4418 20.2079ZM53.2564 23.7051L52.9608 23.4627C53.9747 22.2252 54.7349 21.4338 55.2783 20.9462C55.5496 20.7026 55.7717 20.5304 55.9483 20.4155C56.0365 20.3582 56.118 20.312 56.1925 20.2781C56.2607 20.2471 56.348 20.2148 56.4418 20.2079L56.484 20.5805L56.5262 20.9531C56.5608 20.9506 56.5658 20.9423 56.5274 20.9597C56.4952 20.9744 56.4458 21.001 56.3777 21.0453C56.2415 21.1339 56.0491 21.2809 55.7948 21.5091C55.287 21.9649 54.5519 22.7272 53.552 23.9475L53.2564 23.7051Z" fill="#C49340"/>
<path id="Vector 14" d="M63.0833 19.3582C62.8565 19.3563 62.6654 19.2047 62.6565 19.0196C62.6476 18.8344 62.8242 18.6858 63.051 18.6877L63.0671 19.0229L63.0833 19.3582ZM68.3917 19.3131C68.536 19.4616 68.5111 19.6716 68.336 19.7822C68.1609 19.8928 67.9019 19.862 67.7575 19.7135L68.0746 19.5133L68.3917 19.3131ZM63.0671 19.0229L63.051 18.6877C64.8895 18.7029 66.1265 18.7883 66.9305 18.8917C67.3317 18.9434 67.6341 19.0006 67.8537 19.0589C67.9632 19.088 68.0603 19.1195 68.1422 19.1542C68.2142 19.1847 68.3152 19.2343 68.3917 19.3131L68.0746 19.5133L67.7575 19.7135C67.7974 19.7545 67.8286 19.7615 67.7923 19.7461C67.7658 19.7349 67.7161 19.7172 67.6347 19.6956C67.4726 19.6525 67.2174 19.6023 66.8418 19.554C66.0922 19.4575 64.8988 19.3732 63.0833 19.3582L63.0671 19.0229Z" fill="#C49340"/>
<path id="Vector 15" d="M74.1943 24.2635C73.9995 24.1758 73.904 23.9548 73.981 23.7699C74.058 23.585 74.2784 23.5062 74.4733 23.5939L74.3338 23.9287L74.1943 24.2635ZM78.8108 26.2413C78.8527 26.4441 78.7204 26.6309 78.5151 26.6585C78.3099 26.6861 78.1094 26.5441 78.0674 26.3413L78.4391 26.2913L78.8108 26.2413ZM74.3338 23.9287L74.4733 23.5939C76.0776 24.3162 77.1123 24.8681 77.7564 25.269C78.0778 25.4689 78.31 25.6362 78.4694 25.7733C78.5488 25.8415 78.6174 25.9083 78.6712 25.9735C78.7167 26.0285 78.7862 26.1227 78.8108 26.2413L78.4391 26.2913L78.0674 26.3413C78.0822 26.4127 78.1158 26.4424 78.0934 26.4153C78.0794 26.3984 78.0482 26.3654 77.9901 26.3154C77.8746 26.2162 77.6811 26.074 77.3798 25.8865C76.7787 25.5124 75.7803 24.9776 74.1943 24.2635L74.3338 23.9287Z" fill="#C49340"/>
<path id="Vector 16" d="M81.7776 29.4941C81.6277 29.3609 81.6246 29.1267 81.7708 28.9711C81.9169 28.8156 82.1569 28.7975 82.3068 28.9307L82.0422 29.2124L81.7776 29.4941ZM85.3691 32.5558C85.3285 32.7589 85.1292 32.902 84.9238 32.8753C84.7184 32.8487 84.5848 32.6625 84.6253 32.4594L84.9972 32.5076L85.3691 32.5558ZM82.0422 29.2124L82.3068 28.9307C83.5412 30.028 84.3032 30.8172 84.7549 31.3628C84.9803 31.635 85.1341 31.8533 85.2309 32.0242C85.2791 32.1093 85.3176 32.1903 85.3429 32.2659C85.3642 32.3297 85.3928 32.4369 85.3691 32.5558L84.9972 32.5076L84.6253 32.4594C84.611 32.5309 84.6311 32.5679 84.6206 32.5364C84.614 32.5168 84.5975 32.4775 84.5623 32.4152C84.4921 32.2915 84.3651 32.107 84.1538 31.8517C83.7322 31.3426 82.9979 30.5788 81.7776 29.4941L82.0422 29.2124Z" fill="#C49340"/>
<path id="Vector 17" d="M86.4824 37.5233C86.4403 37.3433 86.5875 37.1651 86.8112 37.1253C87.0348 37.0854 87.2503 37.1991 87.2924 37.379L86.8874 37.4512L86.4824 37.5233ZM87.5776 41.7188C87.4266 41.8605 87.1661 41.8799 86.9958 41.762C86.8255 41.6441 86.8099 41.4336 86.9609 41.2919L87.2693 41.5054L87.5776 41.7188ZM86.8874 37.4512L87.2924 37.379C87.6332 38.8354 87.771 39.83 87.8022 40.4857C87.8178 40.813 87.8072 41.0631 87.7792 41.2479C87.7652 41.34 87.746 41.4227 87.7199 41.4938C87.6969 41.5565 87.6567 41.6445 87.5776 41.7188L87.2693 41.5054L86.9609 41.2919C86.9205 41.3299 86.9187 41.3544 86.9303 41.3225C86.939 41.299 86.9508 41.2559 86.9612 41.1873C86.9819 41.0505 86.9932 40.8389 86.9786 40.5325C86.9495 39.9211 86.8189 38.9613 86.4824 37.5233L86.8874 37.4512Z" fill="#C49340"/>
<path id="Vector 18" d="M88.1439 46.5277C88.1861 46.3477 88.0389 46.1695 87.8152 46.1297C87.5915 46.0898 87.3761 46.2034 87.334 46.3834L87.739 46.4556L88.1439 46.5277ZM87.0488 50.7232C87.1998 50.8649 87.4603 50.8843 87.6306 50.7664C87.8009 50.6485 87.8165 50.438 87.6655 50.2963L87.3571 50.5098L87.0488 50.7232ZM87.739 46.4556L87.334 46.3834C86.9932 47.8398 86.8554 48.8344 86.8241 49.4901C86.8086 49.8174 86.8191 50.0675 86.8472 50.2523C86.8611 50.3444 86.8804 50.4271 86.9065 50.4982C86.9295 50.5609 86.9697 50.6489 87.0488 50.7232L87.3571 50.5098L87.6655 50.2963C87.7059 50.3342 87.7077 50.3588 87.696 50.3269C87.6874 50.3034 87.6756 50.2603 87.6652 50.1917C87.6445 50.0549 87.6332 49.8433 87.6478 49.5369C87.6769 48.9255 87.8074 47.9657 88.1439 46.5277L87.739 46.4556Z" fill="#C49340"/>
<path id="Vector 19" d="M90.0671 54.9101C89.9854 54.7347 89.7581 54.6688 89.5594 54.763C89.3607 54.8571 89.2659 55.0756 89.3476 55.251L89.7074 55.0806L90.0671 54.9101ZM91.8507 59.0533C92.051 59.106 92.2763 58.9931 92.3541 58.8012C92.4318 58.6092 92.3325 58.4109 92.1322 58.3582L91.9914 58.7057L91.8507 59.0533ZM89.7074 55.0806L89.3476 55.251C89.9944 56.6392 90.5171 57.5471 90.9123 58.1202C91.1097 58.4064 91.2788 58.6144 91.4197 58.7585C91.49 58.8305 91.5573 58.8906 91.6212 58.9374C91.6796 58.9802 91.7577 59.0289 91.8507 59.0533L91.9914 58.7057L92.1322 58.3582C92.1686 58.3678 92.1732 58.3782 92.1409 58.3546C92.1143 58.3351 92.074 58.3007 92.02 58.2455C91.9121 58.1351 91.7653 57.9576 91.5805 57.6895C91.2113 57.1543 90.7051 56.2793 90.0671 54.9101L89.7074 55.0806Z" fill="#C49340"/>
<path id="Vector 20" d="M97.343 65.4379C97.1169 65.3784 97.0202 66.0076 95.7355 63.2502C96.0328 63.0106 96.8056 62.5315 97.519 62.5315C98.4107 62.5315 98.4107 63.2502 98.4107 63.9689L98.4107 63.969C98.4107 64.6877 97.343 65.4379 97.343 65.4379Z" fill="#C49340" stroke="#C49340" stroke-width="0.75" stroke-linecap="round"/>
<path id="Vector 3" d="M22.0859 37.6243C21.9825 37.4577 21.7483 37.4149 21.563 37.5289C21.3778 37.6428 21.3114 37.8702 21.4149 38.0369L21.7504 37.8306L22.0859 37.6243ZM24.628 41.9041C24.8309 41.9457 25.0459 41.8192 25.1082 41.6217C25.1705 41.4242 25.0565 41.2304 24.8536 41.1888L24.7408 41.5464L24.628 41.9041ZM21.7504 37.8306L21.4149 38.0369C22.304 39.4683 22.9965 40.3992 23.5057 40.9831C23.76 41.2748 23.9725 41.4844 24.1446 41.6276C24.2305 41.6992 24.3104 41.7575 24.3838 41.8018C24.4519 41.8429 24.5357 41.8852 24.628 41.9041L24.7408 41.5464L24.8536 41.1888C24.8807 41.1944 24.8775 41.1994 24.8361 41.1744C24.8001 41.1527 24.7481 41.1161 24.6796 41.059C24.5426 40.945 24.355 40.7623 24.1152 40.4873C23.636 39.9377 22.9636 39.0374 22.0859 37.6243L21.7504 37.8306Z" fill="#C49340"/>
</g>
</g>
</svg>
