<svg preserveAspectRatio="none" overflow="visible" style="display: block;" width="58" height="220" viewBox="0 0 58 220" fill="none" xmlns="http://www.w3.org/2000/svg">
<g id="graphic-personal-assessment">
<path id="Vector" d="M51.2895 211.485C46.4869 207.919 45.5672 203.403 45.6438 197.784C45.9248 177.489 45.1074 157.245 43.0126 137.053C42.6039 133.076 41.7353 128.894 43.3702 124.994C47.6875 114.628 48.7094 103.724 48.3517 92.7166C48.1218 85.4812 49.7057 79.1181 53.6909 73.1399C56.4754 68.932 58.7745 59.3361 57.7527 54.3073C55.1214 41.6324 50.9319 16.3085 50.0122 5.17309C49.6801 1.19618 48.3773 -0.676822 44.341 0.221192C38.9508 1.40144 33.4584 1.19618 28.017 1.24749C18.6672 1.35012 17.2621 2.27379 18.3095 11.5105C19.1525 18.9512 17.3643 24.8268 12.8426 30.6254C1.19363 45.6094 -2.33173 61.9275 8.01444 78.9898C13.4302 87.9443 14.4265 97.6941 16.0359 107.495C17.0578 113.602 18.5394 119.631 19.7146 125.712C20.1233 127.79 20.6342 129.971 20.4298 132.024C18.6416 150.292 17.0578 168.586 14.6309 186.777C13.4558 195.578 11.4632 204.814 2.13884 211.357C0.248426 212.691 -0.569044 216.052 0.427254 216.95C1.60237 218.028 4.02925 219.619 9.34284 215.642C10.6457 214.667 11.8208 213.487 12.8937 212.281C18.7693 205.712 19.2292 197.091 21.3495 189.138C24.1596 178.695 26.5354 168.124 31.1592 158.092C34.659 175.436 37.7245 192.73 42.1696 209.715C42.7827 212.05 43.3191 214.308 44.5709 216.36C46.6657 219.773 49.7312 221.184 52.95 218.849C57.0374 215.873 53.4354 213.076 51.2895 211.485ZM25.0792 4.42903C30.5205 4.42903 36.013 4.76258 41.4032 3.63364C45.3373 2.8126 46.4102 4.96783 46.3591 8.48292C46.308 14.4355 46.1292 20.388 47.4576 26.2892C48.1985 29.5734 46.5635 31.2668 43.268 31.3181C43.268 31.3181 32.3343 31.3181 29.0133 31.4721C24.6194 31.6773 22.4224 29.753 22.0648 25.3399C21.6305 20.1058 21.1196 14.8973 20.4043 9.71448C19.8678 5.86585 21.4517 4.40337 25.0792 4.42903ZM10.9522 44.6857C11.1822 43.2745 11.3865 41.812 11.9996 40.5292C13.8645 36.4496 20.3277 34.2944 24.9515 34.2687C31.2103 34.2431 37.7501 35.0641 44.1366 34.6536C48.9393 34.3457 51.3406 35.4233 50.6764 40.7088C50.3699 43.0693 50.6253 47.4054 50.8808 50.2534C51.6216 58.6434 50.472 64.0828 43.1914 69.7531C41.6586 70.959 40.4069 72.3958 38.1844 71.5235C35.6042 70.4972 36.6261 68.4446 36.7538 66.6485C37.1625 60.8499 35.9363 55.6414 30.8271 52.2033C27.5061 49.9711 24.0829 50.0225 20.9408 52.6652C17.722 55.3592 18.4372 58.5664 20.1233 61.7223C21.1196 63.6209 22.3713 65.3657 23.5465 67.1873C24.8493 69.2399 26.5865 71.1899 22.9078 72.8063C19.9445 74.1405 14.0178 74.0636 12.7916 70.8564C9.44502 62.2868 9.57275 53.5119 10.9522 44.6857Z" fill="#2D3A4A"/>
</g>
</svg>
