<svg width="106" height="80" viewBox="0 0 106 80" fill="none" xmlns="http://www.w3.org/2000/svg">
<path fill-rule="evenodd" clip-rule="evenodd" d="M55.7 63.1401C56.0855 63.4451 56.3124 62.6868 57.1064 61.2686C59.5369 57.5312 61.813 53.6907 63.8962 49.7471C64.6035 48.4197 64.7964 47.2856 63.6905 45.9453C62.4045 44.3988 61.9673 42.4527 62.4688 40.4294C62.8032 39.1277 63.3947 37.9679 64.9635 37.8003C66.3266 37.6586 67.4197 38.4834 68.0241 40.133C68.6928 41.963 68.6028 43.8188 67.8569 45.5844C67.2782 46.9505 67.4968 48.0846 68.3713 49.2058C69.0014 50.0049 69.6058 50.8425 70.2102 51.6545C73.2707 55.7527 77.0643 59.2839 79.6362 63.9363C80.1891 63.3048 80.5749 62.7893 81.025 62.3254C82.4267 60.8691 82.9539 60.8304 84.587 62.0032C84.9728 62.2738 85.32 62.5831 85.6672 62.8924C90.078 66.8618 94.5145 70.8054 98.8996 74.8134C100.096 75.896 100.134 76.6435 101.78 76.9141C102.59 77.043 104.506 77.4039 105.252 77.7647C105.689 77.9838 106.114 78.6797 105.972 79.1823C105.869 79.5947 105.291 79.8138 104.918 79.8396C102.526 80.0329 100.211 80.3422 98.128 78.422C94.0259 74.6459 89.7565 71.076 85.5386 67.4417C83.314 65.5215 83.0953 65.5602 81.5908 67.983C80.0348 70.509 78.4531 73.035 76.9614 75.5996C74.1066 80.5355 74.7624 79.9814 69.13 79.9814C66.3652 79.9814 66.1466 79.8396 65.7094 77.0945C65.1179 73.3443 64.6935 69.5553 64.2563 65.7793C63.9348 63.0471 63.729 60.3149 63.4333 57.1832C61.6329 59.0648 60.527 60.8691 59.2154 62.6991C57.8254 64.6536 57.7175 66.409 58.6191 68.3141L55.7 63.1401ZM74.8139 61.2042C77.4501 64.1296 77.9387 68.2408 73.335 71.1534C72.512 66.5396 71.779 61.333 70.8789 57.5828C70.7889 57.1961 71.1103 57.0157 71.3804 57.2992C72.4606 58.4076 73.6565 59.9154 74.8139 61.2042Z" fill="#D4DEE8"/>
<path d="M57.6208 72.4808C56.9521 72.5066 56.8878 74.2722 56.8107 75.1099C56.7464 76.128 56.7335 77.1461 56.4377 78.1384C56.0519 79.3885 55.1904 79.9169 53.9301 79.8783C53.4543 79.8654 52.9785 79.8138 52.7342 79.337C52.477 78.8473 52.6956 78.3962 53.0943 78.1256C54.2388 77.3394 54.2902 76.128 54.496 74.9294C54.8174 72.9963 54.8817 71.0374 54.9075 69.0914C54.9188 68.0832 54.7612 67.1447 54.3299 66.2496L57.6208 72.4808Z" fill="#D4DEE8"/>
<path d="M0.743515 37.5168C3.07108 33.599 5.41149 29.7069 8.03481 25.9824C10.0666 23.0956 12.317 20.3763 14.7732 17.8375C18.6053 13.8552 23.0032 10.6462 28.1213 8.46818C36.2484 5.01431 44.5942 2.24348 53.1972 0.25879C54.8046 -0.11495 56.2577 -0.230938 57.6337 0.941832C61.1057 3.8802 64.6163 6.76702 68.127 9.65384C69.3486 10.672 69.7344 11.7545 69.0914 13.3139C67.8569 16.3296 66.6867 19.3711 65.6708 22.4512C64.5135 25.9566 62.726 28.9981 60.2184 31.7174C57.2607 34.9264 54.5088 38.3158 51.6026 41.5764C50.3809 42.9553 49.3007 44.5405 47.719 45.5329C46.536 46.2675 46.5874 47.0021 47.1918 48.0588C49.6737 52.4148 52.0784 56.8224 54.586 61.1655C55.1457 62.3225 55.4549 62.9462 55.7 63.1401L58.6191 68.3141C58.7936 68.6828 59.0059 69.057 59.2539 69.4393C61.0671 72.2359 62.546 75.2516 64.1534 78.1771C64.4234 78.6668 64.6549 79.2597 64.0891 79.685C63.6133 80.0329 63.0218 79.9943 62.4945 79.7623C61.5815 79.3499 61.2472 78.4477 60.7714 77.6487C59.7426 75.9347 58.2123 72.455 57.6208 72.4808L54.3299 66.2496C54.2705 66.1264 54.2059 66.004 54.1359 65.8824C51.0496 60.4825 48.0148 55.0568 44.9028 49.6698C43.6554 47.5047 43.5526 47.5304 41.1607 48.6001C35.7469 51.0359 30.3331 53.4716 24.9321 55.9203C23.479 56.5775 22.0002 57.1059 20.3799 56.9255C16.2263 56.4615 12.047 56.6549 7.88049 56.5518C5.33433 56.4873 5.07715 56.3198 4.27986 53.9356C2.91676 49.7987 1.65653 45.6102 0.267715 41.4733C-0.22094 40.0299 -0.0280533 38.8055 0.743515 37.5168Z" fill="#63A5D9"/>
</svg>
